<?xml version="1.0" standalone="no"?>
<!DOCTYPE svg PUBLIC "-//W3C//DTD SVG 20010904//EN"
 "http://www.w3.org/TR/2001/REC-SVG-20010904/DTD/svg10.dtd">
<svg version="1.0" xmlns="http://www.w3.org/2000/svg"
 width="1090.000000pt" height="1090.000000pt" viewBox="0 0 1090.000000 1090.000000"
 preserveAspectRatio="xMidYMid meet">
<metadata>
Created by potrace 1.11, written by Peter Selinger 2001-2013
</metadata>
<g transform="translate(0.000000,1090.000000) scale(0.100000,-0.100000)"
fill="#000000" stroke="none">
<path d="M4480 10885 c0 -18 -36 -130 -51 -161 -8 -16 -8 -27 2 -41 10 -17 9
-24 -9 -44 -24 -24 -25 -33 -13 -64 9 -22 -5 -59 -19 -50 -5 3 -15 -3 -22 -13
-7 -9 -26 -28 -43 -40 -28 -22 -30 -22 -42 -6 -7 10 -13 14 -13 8 -1 -5 -8 9
-16 31 -8 23 -12 56 -9 76 4 34 3 37 -24 42 -16 3 -35 13 -44 21 -8 8 -26 18
-41 22 -14 3 -26 10 -26 14 0 4 -8 10 -17 14 -19 6 -55 27 -63 37 -3 3 -25 17
-50 32 -40 23 -50 25 -88 16 -74 -16 -114 -48 -162 -129 -18 -30 -38 -59 -44
-65 -7 -5 -22 -25 -35 -42 -12 -18 -28 -33 -34 -33 -7 0 -25 -7 -41 -15 -16
-9 -62 -18 -103 -22 -41 -3 -76 -10 -79 -14 -3 -5 -18 -9 -34 -9 -16 0 -35 -6
-42 -12 -21 -21 -98 -58 -119 -58 -11 0 -27 4 -37 9 -9 5 -38 19 -63 30 -25
12 -54 29 -65 39 -23 22 -73 33 -159 38 -33 1 -75 4 -93 7 -37 4 -90 50 -130
112 -33 52 -56 70 -118 91 l-51 17 -56 -34 c-31 -19 -61 -43 -67 -54 -6 -11
-40 -40 -75 -65 -63 -44 -107 -104 -173 -235 -91 -182 -112 -230 -131 -311
-29 -125 -27 -166 10 -244 17 -36 44 -103 60 -150 35 -99 37 -131 14 -345 -8
-68 18 -269 41 -324 8 -19 32 -58 53 -85 21 -28 42 -64 45 -80 4 -17 16 -42
27 -57 18 -26 22 -27 46 -16 15 7 44 29 64 50 21 20 46 37 56 37 11 0 29 9 40
20 22 19 124 60 153 60 9 0 22 9 30 19 7 11 31 23 52 26 21 4 40 11 44 16 3 5
18 9 33 9 15 0 32 5 38 11 7 7 71 13 166 15 138 4 156 2 178 -14 30 -24 83
-42 120 -42 16 0 29 -4 29 -9 0 -5 8 -11 18 -15 15 -5 29 -13 66 -38 46 -31
137 -126 164 -172 78 -128 139 -304 168 -478 17 -103 20 -457 5 -538 -6 -30
-18 -100 -26 -155 -9 -55 -23 -125 -31 -155 -9 -30 -22 -81 -29 -112 -7 -31
-21 -70 -32 -85 -10 -15 -27 -55 -37 -87 -26 -86 -142 -304 -166 -311 -9 -3
-23 -18 -33 -34 -9 -16 -37 -54 -62 -85 -25 -30 -54 -75 -64 -98 -10 -24 -41
-68 -70 -98 -28 -30 -51 -58 -51 -62 0 -4 -6 -5 -14 -2 -7 3 -27 -11 -45 -32
-30 -33 -202 -164 -216 -164 -11 0 -100 -42 -125 -60 -14 -9 -63 -32 -110 -50
-47 -17 -94 -36 -105 -40 -24 -10 -63 -19 -133 -30 -29 -5 -63 -17 -76 -28
-34 -26 -126 -29 -163 -5 -39 25 -63 52 -69 82 -3 14 -10 42 -15 61 -14 55
-10 296 6 390 8 46 26 124 40 173 31 107 34 148 11 182 -14 21 -20 24 -32 14
-8 -6 -14 -26 -14 -45 0 -32 -17 -129 -26 -149 -22 -50 -57 -83 -60 -57 -1 12
-23 64 -41 99 -14 26 -15 38 -5 71 7 22 12 52 12 67 0 15 4 44 10 64 5 20 12
53 15 74 4 24 11 37 21 37 9 0 22 7 30 15 8 8 21 12 28 9 11 -4 11 4 -2 40 -9
25 -23 46 -29 46 -7 0 -13 6 -13 14 0 8 -6 16 -14 19 -10 4 -15 45 -21 169 -4
90 -11 184 -16 210 -6 35 -5 56 6 80 8 18 14 26 15 18 0 -13 1 -13 11 0 8 11
12 12 16 2 2 -6 9 -10 14 -6 5 3 12 -3 16 -13 4 -10 10 -20 15 -24 4 -3 2 -20
-5 -39 -9 -26 -9 -34 1 -37 6 -3 12 -10 12 -17 0 -6 9 -19 20 -29 11 -9 20
-29 20 -45 0 -15 4 -32 9 -37 4 -6 16 -32 26 -60 28 -82 56 -133 76 -138 15
-4 17 -12 12 -63 -5 -48 -12 -64 -36 -87 -27 -25 -29 -31 -23 -70 11 -64 20
-63 39 6 10 34 24 78 32 97 60 152 72 186 68 197 -5 12 -45 30 -51 22 -7 -9
-67 101 -95 170 -15 40 -38 90 -51 110 -35 57 -49 98 -42 127 7 27 7 27 -18
11 -14 -10 -36 -17 -50 -17 -14 0 -29 -7 -34 -16 -7 -13 -11 -9 -16 20 -13 69
-40 33 -74 -99 -12 -44 -42 -147 -67 -229 -68 -219 -68 -215 0 -387 41 -106
54 -148 47 -160 -7 -10 -7 -33 0 -65 6 -27 10 -59 9 -72 0 -13 4 -33 10 -44 9
-17 13 -18 20 -7 6 9 9 0 9 -28 0 -42 17 -93 30 -93 4 0 10 -27 13 -60 3 -34
10 -66 15 -73 13 -16 -11 -113 -34 -139 -10 -10 -31 -18 -49 -18 -24 0 -34 -6
-43 -25 -10 -21 -15 -24 -31 -16 -10 6 -21 8 -24 5 -10 -10 -44 6 -77 38 -22
20 -35 27 -39 19 -5 -7 -12 -2 -19 14 -6 14 -17 25 -24 25 -8 0 -30 11 -50 25
-20 14 -41 25 -45 25 -13 0 -43 -60 -42 -83 1 -17 2 -18 6 -4 5 20 17 22 31 4
6 -7 27 -19 47 -27 35 -14 50 -44 19 -38 -10 2 -24 -9 -33 -26 -19 -34 -61
-54 -61 -30 0 20 -17 3 -48 -47 -28 -46 -28 -72 0 -102 25 -25 58 -42 58 -28
0 8 56 36 72 36 21 0 18 19 -6 44 -24 25 -27 35 -22 65 6 33 22 43 38 22 3 -5
18 -10 33 -12 44 -5 53 -11 60 -43 8 -36 24 -49 35 -30 7 10 12 10 23 1 8 -7
22 -10 31 -6 9 3 16 1 16 -5 0 -17 28 -1 33 20 4 13 14 19 36 19 45 0 51 -36
18 -100 -15 -28 -23 -58 -20 -69 3 -12 1 -21 -6 -21 -6 0 -11 -7 -11 -15 0
-25 -41 -105 -51 -99 -5 3 -9 -1 -9 -10 0 -8 -6 -16 -12 -18 -10 -4 -10 -11 0
-33 9 -19 10 -31 2 -39 -5 -5 -10 -18 -10 -28 0 -10 -4 -18 -8 -18 -4 0 -9
-64 -10 -142 -1 -79 -2 -161 -3 -183 -1 -22 4 -58 10 -80 23 -77 23 -141 0
-179 -12 -20 -25 -36 -30 -36 -5 0 -11 -11 -15 -25 -8 -32 -12 -31 -50 5 -18
16 -35 26 -39 22 -4 -4 -10 -7 -13 -7 -4 -1 -17 -6 -29 -13 -13 -7 -23 -10
-23 -6 0 3 -6 2 -12 -2 -12 -8 -34 -10 -48 -4 -3 1 -19 3 -35 4 -17 1 -37 6
-44 10 -7 5 -17 1 -25 -9 -21 -29 -60 -12 -79 32 -9 21 -19 48 -22 61 -4 13
-9 21 -12 18 -12 -12 -41 15 -46 44 -9 43 -38 85 -48 69 -5 -9 -10 -4 -14 14
-4 15 -11 27 -16 27 -5 0 -9 7 -9 15 0 8 6 15 14 15 20 0 35 23 39 60 2 18 11
36 19 41 9 5 19 29 22 54 4 24 10 47 15 49 12 8 6 61 -7 59 -7 -2 -12 3 -12 9
0 28 -29 -32 -44 -91 -9 -35 -24 -71 -34 -80 -10 -9 -16 -26 -14 -39 2 -15 -5
-30 -22 -43 -13 -11 -28 -28 -31 -39 -4 -11 -10 -18 -15 -15 -5 3 -11 -4 -15
-15 -3 -11 -22 -27 -40 -36 -55 -26 -82 -60 -139 -178 -139 -286 -155 -388
-66 -415 28 -8 39 -18 49 -46 9 -27 10 -39 1 -50 -19 -23 -2 -85 27 -96 14 -5
29 -7 34 -3 5 3 9 0 9 -5 0 -7 7 -7 20 1 11 7 20 20 20 29 0 22 26 43 45 35 8
-3 15 -1 15 4 0 24 28 7 33 -19 7 -35 -2 -103 -14 -96 -4 3 -20 -6 -35 -19
-25 -21 -28 -30 -26 -77 1 -29 8 -62 16 -73 13 -21 11 -86 -3 -86 -4 0 -13 6
-20 13 -10 10 -15 8 -25 -6 -8 -10 -20 -15 -30 -11 -12 5 -16 0 -16 -19 0 -15
-10 -33 -23 -44 -41 -32 -104 -145 -128 -232 -23 -82 -23 -83 -4 -97 11 -7 25
-18 32 -24 17 -14 73 -13 73 2 0 6 7 19 16 29 8 9 16 26 17 38 1 18 6 21 30
17 18 -3 30 0 33 9 7 17 34 8 34 -11 0 -8 6 -25 13 -37 15 -24 12 -117 -4
-117 -5 0 -9 -7 -9 -15 0 -8 -4 -15 -9 -15 -5 0 -12 -8 -16 -19 -3 -10 -14
-29 -25 -41 -20 -23 -28 -56 -11 -46 12 8 21 -52 20 -124 -1 -56 26 -144 41
-135 5 3 11 1 15 -4 3 -6 12 -8 20 -4 8 3 15 0 15 -6 0 -7 15 -18 34 -26 41
-17 48 -26 61 -80 l10 -40 59 -3 c39 -2 71 2 90 12 17 8 50 23 74 32 23 10 42
21 42 26 0 4 9 8 20 8 11 0 20 5 20 10 0 6 20 10 45 10 39 0 45 3 45 21 0 11
-5 17 -10 14 -19 -12 -10 40 15 80 16 27 24 55 25 86 0 25 7 54 15 65 31 42
16 71 -34 64 -8 -1 -17 2 -20 7 -3 5 -18 16 -32 25 -18 12 -28 29 -33 57 -3
23 -17 51 -32 66 -14 14 -32 45 -40 70 -9 24 -22 49 -30 56 -8 6 -14 16 -14
21 0 14 -72 121 -87 131 -7 5 -22 18 -33 29 -22 23 -24 21 -35 -44 -3 -21 -10
-38 -15 -38 -6 0 -10 -6 -10 -12 0 -16 -47 -39 -64 -32 -13 5 -18 104 -5 104
4 0 9 8 12 19 2 10 18 24 35 32 31 13 52 48 57 92 1 12 3 28 4 35 0 6 6 11 12
10 45 -11 63 203 18 215 -11 3 -19 15 -20 29 -3 57 11 79 40 61 10 -6 24 -8
31 -3 17 10 60 -9 60 -27 0 -7 12 -32 26 -55 l27 -42 29 34 c16 19 31 45 34
57 5 19 12 22 38 19 17 -2 42 1 55 6 15 5 28 5 34 -1 7 -7 16 -6 28 5 9 8 25
17 35 18 24 4 44 -33 32 -57 -5 -10 -6 -28 -3 -40 5 -18 4 -19 -5 -7 -9 12
-10 9 -5 -15 4 -16 13 -37 21 -45 61 -66 90 -130 79 -180 -7 -32 -31 -40 -53
-18 -9 9 -12 7 -12 -9 0 -12 -4 -23 -9 -25 -11 -4 8 -131 21 -139 13 -8 13
-121 -1 -147 -6 -12 -11 -25 -10 -29 4 -26 -4 -39 -25 -41 -19 -1 -27 5 -36
31 -29 79 -35 123 -27 186 4 37 4 68 -2 75 -5 6 -12 30 -16 52 -7 44 7 60 40
48 13 -5 19 5 17 27 -1 4 3 21 8 38 5 17 5 33 0 36 -4 3 -11 17 -15 32 -7 32
-42 73 -61 73 -7 0 -17 7 -22 15 -13 25 -38 8 -56 -38 -18 -48 -20 -84 -6
-142 12 -50 22 -323 12 -329 -4 -2 -9 -37 -11 -78 -1 -40 -7 -78 -13 -85 -10
-13 -6 -15 50 -17 24 -1 42 -21 42 -45 0 -12 6 -21 14 -21 7 0 29 -24 48 -54
32 -49 34 -56 20 -70 -9 -9 -16 -34 -16 -66 -1 -61 10 -66 19 -7 8 51 31 59
41 13 7 -33 34 -68 34 -44 0 9 3 9 8 2 4 -6 16 -16 28 -22 19 -10 22 -8 33 29
9 31 10 62 2 128 -11 86 -11 101 4 133 9 22 25 23 25 2 0 -10 6 -14 15 -10 18
7 40 -15 66 -65 11 -22 29 -49 39 -59 21 -21 28 -80 10 -80 -5 0 -9 -8 -8 -17
3 -37 -3 -52 -20 -57 -22 -7 -39 -50 -37 -98 1 -20 -2 -35 -7 -32 -4 3 -8 -8
-8 -24 0 -52 -50 -146 -56 -104 -4 31 -56 133 -70 139 -8 3 -14 18 -14 34 0
16 -3 29 -7 29 -22 -1 -31 -20 -31 -68 -1 -30 -5 -59 -9 -65 -9 -13 -8 -55 6
-172 8 -70 8 -70 9 -17 2 56 6 60 32 37 20 -18 47 -11 55 16 4 11 10 17 15 14
4 -3 11 3 15 13 6 16 7 16 17 -2 7 -13 12 -15 18 -6 8 12 26 -2 54 -42 15 -21
16 -21 35 -4 10 9 26 37 35 61 17 44 17 44 62 41 61 -5 84 -27 79 -78 -4 -43
2 -71 15 -63 18 11 17 -47 -1 -69 -11 -13 -19 -30 -19 -38 0 -7 -9 -20 -20
-28 -11 -8 -20 -20 -20 -27 0 -7 -6 -22 -13 -33 -9 -15 -9 -23 -1 -28 30 -19
56 -243 31 -268 -4 -4 -4 -29 -1 -55 3 -26 2 -55 -4 -65 -7 -12 -6 -23 1 -36
9 -13 8 -26 0 -49 -9 -22 -9 -37 -2 -51 11 -20 29 -16 29 8 0 8 5 14 10 14 6
0 10 10 10 23 1 53 41 182 63 199 20 16 23 16 38 -1 9 -9 22 -30 30 -45 17
-34 30 -36 44 -7 5 11 15 21 21 21 6 0 17 13 24 29 10 25 16 28 33 22 18 -7
22 -18 25 -73 3 -59 1 -70 -30 -119 -30 -49 -49 -91 -65 -144 -4 -11 -11 -25
-17 -32 -6 -7 -16 -19 -23 -27 -25 -30 -14 -163 18 -214 15 -24 35 -29 42 -9
3 9 9 9 26 -1 12 -7 26 -10 31 -7 6 4 10 1 10 -4 0 -6 5 -11 12 -11 6 0 22
-10 35 -22 19 -18 23 -19 23 -5 0 9 13 29 30 43 16 15 32 35 35 45 4 11 13 19
20 19 8 0 21 24 32 58 25 81 36 90 62 48 12 -18 21 -43 21 -55 0 -12 4 -20 8
-17 4 2 23 -19 42 -47 39 -58 80 -98 94 -90 5 4 6 1 2 -5 -4 -7 -2 -12 3 -12
6 0 11 -7 11 -16 0 -9 6 -22 14 -28 15 -11 26 -61 13 -61 -3 0 -14 -11 -23
-23 -12 -18 -15 -37 -11 -75 3 -35 0 -58 -10 -74 -8 -12 -13 -30 -12 -40 3
-26 -11 -53 -27 -53 -8 0 -24 -21 -35 -47 -16 -37 -18 -52 -9 -76 19 -55 13
-107 -15 -129 -29 -22 -32 -54 -9 -86 13 -19 25 -22 82 -24 66 -2 66 -2 13 -5
-47 -4 -59 -9 -88 -41 l-33 -36 0 147 0 147 -60 0 -60 0 0 -425 0 -425 60 0
c35 0 60 4 60 11 0 5 10 3 22 -5 14 -10 44 -16 79 -16 59 0 78 10 112 60 21
30 22 10 2 -29 -17 -33 -70 -81 -90 -81 -9 0 -12 -6 -9 -15 3 -8 1 -28 -4 -45
-9 -25 -8 -30 4 -30 8 0 12 -4 9 -10 -3 -5 -1 -28 5 -50 6 -22 7 -46 3 -53 -4
-6 -9 -31 -10 -54 l-3 -43 185 0 185 0 0 23 c1 25 20 53 35 51 36 -4 75 -34
75 -58 0 -14 47 -16 440 -16 l440 0 0 28 c0 15 6 36 14 47 28 40 85 95 98 95
8 0 19 5 25 11 13 13 92 14 103 2 4 -4 13 -24 20 -43 18 -48 39 -70 66 -70 17
0 25 7 30 26 8 32 -11 100 -30 107 -8 3 -22 29 -31 57 -16 48 -58 104 -69 93
-14 -14 -16 65 -2 92 9 17 16 38 16 47 0 9 5 20 10 23 6 3 10 22 10 41 0 30
-2 33 -13 22 -25 -24 -37 -56 -37 -95 0 -21 -5 -45 -10 -53 -6 -10 -10 77 -10
255 1 256 9 317 24 180 9 -78 35 -227 40 -233 2 -2 7 27 11 65 10 108 25 216
30 221 3 3 5 -121 5 -276 l0 -282 60 0 60 0 0 210 0 210 24 15 c29 19 72 11
87 -17 6 -11 13 -107 16 -213 l6 -193 36 -6 c20 -3 46 -6 59 -6 l23 0 -3 270
c-2 149 -2 270 -1 270 0 0 9 -25 18 -55 10 -30 22 -52 27 -49 5 3 22 34 38 68
28 60 93 136 106 123 3 -3 -7 -18 -23 -34 -16 -16 -40 -51 -53 -78 -23 -46
-25 -62 -25 -185 0 -164 13 -218 67 -272 34 -34 44 -38 87 -38 35 0 58 7 85
25 l36 25 -6 -43 c-9 -58 -18 -72 -54 -87 -32 -13 -59 -10 -147 18 l-33 11 0
-88 0 -89 31 -6 c17 -3 64 -6 103 -6 82 0 141 22 174 65 46 58 52 108 53 429
1 288 8 332 25 164 8 -78 16 -83 68 -37 20 17 40 28 46 24 5 -3 10 1 10 9 0
23 21 20 27 -4 3 -11 9 -20 14 -20 14 0 11 -57 -5 -93 -7 -18 -16 -54 -20 -80
-4 -26 -11 -47 -17 -47 -5 0 -9 6 -9 13 0 18 -35 -43 -50 -87 -11 -33 -10 -42
6 -71 10 -19 21 -32 25 -29 4 2 11 -6 15 -18 4 -13 11 -26 17 -29 5 -4 10 -43
10 -87 1 -66 -2 -85 -18 -102 -14 -16 -19 -37 -20 -81 l0 -59 123 0 c108 0
122 2 122 17 0 23 49 73 65 67 7 -3 15 3 18 13 4 16 5 16 6 1 0 -10 7 -18 15
-18 16 0 26 -21 26 -56 l0 -24 210 0 c192 0 211 2 216 18 41 122 89 185 172
225 12 5 22 14 22 18 0 5 21 7 48 4 88 -7 140 5 178 41 18 19 34 37 34 42 0 5
31 7 69 4 59 -3 78 0 125 21 l56 26 0 80 c0 45 -3 81 -7 81 -5 0 -19 -12 -32
-26 -32 -33 -77 -56 -104 -52 -24 3 -25 9 -5 83 l14 50 73 9 74 10 -6 95 c-3
53 -12 113 -18 134 -13 38 -12 40 19 67 29 25 52 37 105 54 9 3 20 14 23 23 3
10 10 29 16 43 l10 24 18 -24 c10 -14 22 -25 27 -25 16 -1 41 -20 45 -35 4
-18 36 -39 61 -40 16 0 17 -26 17 -405 l0 -405 60 0 60 0 0 125 0 125 33 -20
c74 -46 143 -13 197 95 l35 70 0 150 c-1 133 -3 156 -23 204 -32 75 -64 101
-127 102 -43 0 -46 2 -26 10 13 5 58 8 98 6 l74 -3 -7 55 c-4 31 -13 70 -21
89 -12 28 -11 39 2 78 8 24 15 51 15 58 0 21 26 26 47 11 10 -8 25 -15 35 -15
21 0 35 -43 31 -100 -1 -25 2 -69 8 -97 10 -50 12 -53 40 -53 24 0 29 4 29 24
0 14 4 28 10 31 15 9 12 35 -4 35 -17 0 -36 79 -36 153 0 48 2 52 25 53 21 2
26 -4 31 -35 4 -20 11 -39 17 -43 5 -3 11 -43 12 -88 l2 -82 59 -54 c56 -52
57 -54 29 -54 -20 0 -40 -12 -67 -39 l-38 -39 0 39 0 39 -60 0 -60 0 0 -300 0
-300 60 0 60 0 0 199 c0 224 0 224 72 221 81 -5 78 -8 80 78 1 51 3 63 6 37
l5 -40 13 60 c17 81 3 172 -49 300 -22 55 -47 118 -55 140 -12 32 -15 83 -14
260 3 304 9 393 33 482 11 42 22 80 25 85 7 11 -15 48 -29 48 -7 0 -18 12 -25
28 -21 48 -68 92 -96 92 -14 0 -26 5 -26 10 0 20 -3 26 -32 66 l-29 41 20 38
c23 44 61 82 61 63 0 -8 5 -6 11 5 5 9 16 17 24 17 7 0 15 5 17 11 3 9 14 7
38 -3 37 -17 67 -28 75 -27 15 0 35 -33 35 -56 0 -15 4 -24 10 -20 5 3 10 0
10 -7 0 -7 22 11 49 40 l49 52 7 -27 c4 -16 10 -22 12 -15 8 21 42 13 59 -13
35 -54 -15 -176 -65 -160 -12 4 -21 2 -21 -4 0 -6 -7 -8 -15 -5 -10 4 -15 0
-15 -15 0 -12 -6 -21 -14 -21 -8 0 -19 -15 -25 -32 -6 -18 -22 -41 -34 -50
-22 -17 -22 -18 21 -18 23 0 42 4 42 8 0 4 16 6 35 4 21 -3 35 0 35 7 0 6 10
11 23 11 12 0 34 11 49 25 15 14 32 25 38 25 5 0 10 4 10 10 0 5 16 16 35 24
19 8 38 22 41 31 3 8 11 15 16 15 6 0 26 14 45 30 18 17 37 30 41 30 4 0 15
12 24 28 10 15 33 47 53 72 19 25 42 55 51 68 9 12 23 64 30 114 21 136 46
198 81 198 18 0 123 -62 123 -72 0 -3 14 -9 30 -13 17 -4 30 -10 30 -14 0 -10
58 -13 101 -6 30 5 36 10 32 26 -3 11 -7 18 -10 16 -6 -7 -69 55 -76 76 -3 9
-13 17 -21 17 -13 0 -14 9 -10 48 8 64 34 132 50 132 8 0 14 4 14 10 0 5 6 7
14 4 9 -3 18 6 25 27 13 38 8 49 -19 42 -11 -3 -20 -3 -20 -1 0 12 38 47 43
41 4 -3 12 8 18 24 5 17 18 33 28 36 12 3 21 18 25 41 4 20 10 36 15 36 4 0 8
16 9 35 1 19 9 49 18 67 19 36 22 120 5 126 -6 2 -8 21 -4 50 7 56 20 85 34
76 15 -9 44 21 64 66 10 22 22 40 27 40 4 0 8 9 8 19 0 11 7 26 15 35 8 8 15
18 15 21 0 4 7 21 14 38 16 34 40 186 31 195 -3 3 -22 8 -42 11 -30 5 -38 11
-36 26 1 11 -4 23 -10 27 -9 6 -9 8 1 8 6 0 12 12 12 28 0 38 27 75 51 69 11
-3 19 0 19 6 0 7 6 3 12 -8 6 -11 16 -23 21 -27 11 -7 57 55 57 77 0 8 5 17
10 20 6 3 10 23 10 43 0 44 8 56 35 59 83 9 110 15 118 28 11 20 33 19 41 -1
10 -27 33 1 47 59 9 40 67 166 84 185 6 7 45 -33 45 -46 0 -9 7 -11 19 -7 32
10 51 -44 51 -144 0 -133 15 -193 35 -143 4 9 9 75 11 147 3 138 4 142 72 257
37 62 61 154 62 236 0 38 -4 52 -14 52 -8 0 -17 -8 -20 -17 -6 -15 -8 -15 -22
-1 -13 13 -14 20 -3 39 17 32 21 99 7 116 -9 11 -9 16 2 23 11 7 11 21 1 82
-6 40 -11 105 -9 143 3 66 2 70 -19 73 -13 2 -23 -1 -23 -6 0 -6 -14 -15 -31
-21 -17 -6 -28 -15 -24 -20 7 -12 -30 -52 -39 -44 -3 4 -7 0 -7 -8 -1 -8 -2
-18 -4 -24 -1 -5 -3 -50 -4 -100 -1 -56 -5 -85 -10 -76 -7 10 -13 5 -26 -23
-9 -20 -21 -34 -25 -31 -5 3 -10 -7 -12 -22 -2 -16 -8 -27 -15 -25 -7 1 -13
-3 -13 -8 0 -6 -8 -20 -19 -31 -20 -22 -27 -124 -9 -146 13 -16 -1 -100 -18
-107 -8 -3 -14 -12 -14 -19 0 -8 -9 -13 -22 -12 -23 2 -51 -10 -73 -30 -7 -6
-12 -47 -13 -93 -2 -80 -15 -122 -38 -122 -7 0 -15 -12 -19 -27 -4 -16 -9 -23
-11 -18 -7 19 -72 5 -77 -17 -5 -18 -7 -19 -30 -3 -21 13 -35 14 -92 5 -37 -6
-70 -8 -73 -5 -3 3 -12 -1 -21 -8 -22 -19 -51 -28 -51 -17 0 17 -38 11 -45 -7
-6 -17 -7 -17 -16 0 -6 9 -19 17 -29 17 -10 0 -25 8 -32 18 -7 10 -25 22 -39
25 -28 7 -42 -10 -52 -63 -16 -76 -41 -159 -49 -154 -4 3 -8 -6 -8 -20 0 -26
-10 -31 -52 -27 -10 1 -18 -4 -18 -11 0 -7 -5 -20 -10 -28 -8 -13 -11 -12 -27
2 -10 10 -30 29 -45 43 -16 15 -30 41 -33 63 -4 20 -8 41 -9 47 -3 10 2 16 47
65 15 16 27 34 27 40 0 5 6 9 13 8 6 -2 12 4 13 12 1 8 8 30 16 49 14 31 14
40 2 75 -8 22 -21 77 -29 121 -7 44 -16 87 -19 95 -3 8 -7 38 -9 65 -3 28 -12
67 -20 88 -11 25 -14 53 -10 86 3 27 0 64 -6 84 -7 19 -13 54 -14 76 -1 35 4
46 27 66 35 30 38 30 61 5 13 -15 29 -19 65 -18 33 2 52 -3 64 -15 36 -36 56
-40 76 -17 17 20 17 25 4 62 -9 26 -15 85 -15 157 -1 64 -2 141 -3 171 -1 38
6 69 22 102 27 58 27 76 3 149 l-19 57 29 61 c16 33 34 61 40 61 5 0 7 5 4 10
-4 6 10 10 34 10 22 0 43 -4 46 -10 11 -17 28 -11 21 7 -11 28 -8 365 3 372 9
6 32 152 30 196 0 15 -3 12 -11 -10 -5 -16 -19 -49 -29 -73 -11 -24 -24 -67
-30 -95 -5 -28 -18 -60 -28 -71 -10 -12 -24 -37 -30 -56 -12 -37 -92 -173
-117 -198 -8 -7 -19 -23 -26 -35 -63 -120 -170 -160 -218 -82 -28 45 -84 205
-104 298 l-18 78 -21 -28 c-12 -15 -40 -55 -62 -89 -100 -153 -149 -220 -224
-306 -34 -39 -72 -44 -127 -18 -64 31 -91 77 -103 175 -6 44 -13 101 -17 127
-7 48 11 142 25 133 4 -2 13 19 20 48 16 66 69 227 81 249 6 10 10 23 10 29 0
6 7 27 16 47 9 21 21 48 26 62 6 14 17 37 24 52 8 14 14 34 14 44 0 20 -132
-187 -155 -244 -8 -18 -23 -45 -34 -60 -37 -52 -102 -185 -97 -198 6 -17 -10
-56 -86 -211 -74 -151 -85 -164 -142 -170 -41 -5 -45 -3 -59 24 -25 47 -65
169 -73 218 -3 25 -10 45 -14 45 -5 0 -23 -25 -42 -56 -77 -130 -89 -145 -190
-246 -48 -47 -65 -58 -103 -64 -152 -22 -221 74 -275 381 -19 107 -24 296 -11
386 19 122 18 118 40 194 60 199 57 185 36 185 -8 0 -15 5 -15 10 0 6 -8 10
-19 10 -22 0 -66 39 -76 68 -3 12 -13 22 -21 22 -8 0 -14 9 -14 19 0 11 -8 27
-17 37 -22 22 -25 210 -3 224 7 4 14 23 15 42 1 18 9 50 18 72 22 50 23 73 3
53 -8 -7 -40 -27 -73 -43 -32 -16 -60 -32 -63 -36 -3 -3 -18 -10 -33 -13 -15
-4 -27 -11 -27 -16 0 -4 -17 -11 -37 -15 -21 -4 -40 -10 -43 -14 -9 -13 -73
-40 -94 -40 -12 0 -34 -7 -51 -16 -21 -11 -43 -13 -81 -8 -33 4 -54 2 -58 -5
-4 -6 -20 -11 -37 -11 -16 0 -29 -4 -29 -10 0 -5 -10 -10 -22 -10 -13 0 -33
-11 -45 -24 l-23 -24 31 -6 c17 -3 49 -6 70 -6 22 0 39 -4 39 -8 0 -15 70 -34
101 -27 20 5 42 2 63 -8 17 -8 49 -23 71 -34 22 -10 42 -20 45 -23 3 -3 26
-16 52 -30 132 -68 213 -173 253 -325 25 -98 16 -294 -16 -330 -5 -5 -9 -15
-9 -23 0 -24 -89 -195 -120 -232 -17 -19 -30 -38 -30 -42 0 -4 -10 -10 -22
-13 -13 -4 -71 -56 -130 -116 -67 -68 -115 -109 -128 -109 -11 0 -28 -9 -37
-20 -10 -11 -25 -20 -35 -20 -10 0 -18 -3 -18 -8 0 -13 -60 -35 -131 -46 -14
-2 -46 -14 -69 -25 -24 -12 -52 -21 -62 -21 -10 0 -18 -4 -18 -10 0 -6 -29
-10 -66 -10 -56 0 -71 4 -96 25 -16 14 -36 25 -43 25 -19 0 -137 52 -153 67
-7 7 -17 13 -22 13 -4 0 -26 18 -48 40 -88 88 -123 293 -87 498 15 85 47 213
67 267 24 64 102 222 134 273 44 68 43 86 -3 107 -73 32 -81 37 -104 68 -18
24 -24 48 -27 109 -3 43 -7 78 -11 78 -3 0 -14 -14 -23 -30 -17 -29 -15 -65 3
-55 5 3 11 -7 15 -22 3 -15 10 -44 16 -63 5 -19 16 -59 24 -88 8 -30 11 -58 8
-63 -3 -6 -2 -15 4 -22 21 -28 20 -46 -4 -72 -14 -15 -29 -23 -36 -19 -7 4
-24 9 -37 10 -14 2 -27 7 -29 13 -2 5 -16 23 -32 39 -19 20 -27 37 -23 50 2
11 -2 33 -11 50 -9 17 -16 47 -16 67 0 42 -6 43 -42 10 -15 -14 -31 -25 -36
-25 -5 0 -17 -9 -27 -20 -10 -11 -24 -20 -32 -20 -7 0 -13 -4 -13 -10 0 -5
-10 -10 -23 -10 -12 0 -42 -11 -67 -24 -25 -13 -60 -27 -77 -31 -18 -3 -33
-10 -33 -15 0 -4 -19 -11 -42 -15 -60 -9 -108 -33 -108 -53 0 -14 -2 -14 -9
-3 -5 8 -14 10 -21 6 -7 -4 -42 -9 -79 -11 -36 -1 -67 -7 -69 -13 -5 -14 -52
-14 -52 -1 0 6 -9 10 -20 10 -11 0 -20 -5 -20 -11 0 -8 -17 -10 -55 -5 -35 4
-55 2 -55 -4 0 -6 -33 -10 -80 -10 -47 0 -80 -4 -80 -10 0 -5 -7 -10 -15 -10
-8 0 -15 -4 -15 -10 0 -5 14 -10 30 -10 17 0 30 -4 30 -9 0 -5 18 -12 40 -16
22 -4 40 -11 40 -15 0 -5 14 -11 30 -15 17 -4 30 -11 30 -16 0 -5 9 -9 19 -9
11 0 26 -7 35 -15 8 -8 19 -15 25 -15 6 0 11 -4 11 -10 0 -5 6 -10 13 -10 8 0
24 -9 37 -20 13 -11 34 -20 47 -20 12 0 23 -4 23 -10 0 -5 9 -10 20 -10 11 0
28 -9 37 -20 10 -11 25 -20 35 -20 10 0 18 -4 18 -9 0 -5 17 -20 38 -32 50
-31 157 -114 212 -166 25 -23 56 -51 70 -62 87 -72 128 -124 149 -191 18 -55
20 -76 12 -111 -6 -28 -6 -60 1 -93 18 -92 4 -292 -26 -366 -4 -8 -20 -21 -36
-29 -28 -12 -33 -11 -68 15 -20 15 -44 36 -53 46 -9 10 -20 18 -25 18 -5 0
-40 30 -78 66 -38 35 -82 72 -97 81 -15 9 -37 33 -48 54 -24 42 -75 89 -97 89
-8 0 -45 28 -81 63 -36 34 -78 74 -94 89 -15 14 -36 29 -46 32 -17 5 -68 54
-137 129 -15 15 -36 27 -50 27 -16 0 -42 16 -70 43 -99 94 -119 109 -150 111
-30 1 -32 -1 -78 -119 -85 -218 -117 -309 -129 -370 -16 -87 -55 -163 -111
-217 -43 -43 -54 -48 -93 -48 -42 0 -46 2 -65 40 -11 21 -20 52 -20 67 0 35
41 190 69 260 11 29 25 79 30 111 6 40 37 116 95 236 47 97 86 183 86 191 0 8
-12 22 -27 32 -40 26 -52 39 -67 73 -12 31 -13 30 -29 -47 -9 -43 -17 -91 -17
-105 0 -37 -41 -136 -59 -143 -19 -7 -25 0 -51 65 -12 30 -26 62 -30 70 -49
85 -120 289 -120 340 0 17 14 40 40 65 22 21 40 44 40 51 0 7 6 14 13 17 22 8
78 134 87 197 5 33 18 80 29 103 11 23 23 54 26 69 4 15 16 30 26 33 10 4 19
15 19 25 0 10 11 28 25 41 13 13 25 31 25 40 0 8 14 28 30 44 17 16 30 35 30
42 0 7 5 13 10 13 6 0 10 7 10 15 0 11 -12 15 -45 15 -25 0 -45 5 -45 10 0 6
-5 10 -11 10 -16 0 -38 26 -54 64 -32 75 -9 275 44 386 17 36 31 72 31 81 0 9
14 35 30 57 17 23 30 44 30 47 0 3 8 13 18 24 9 10 32 34 50 54 18 20 53 46
77 58 25 12 45 26 45 31 0 4 9 8 19 8 11 0 28 11 39 25 11 14 30 25 43 25 13
0 36 6 51 14 15 8 40 17 57 21 17 4 33 11 36 16 4 5 19 9 34 9 15 0 31 3 35 8
8 8 14 9 50 11 14 0 31 8 40 16 8 8 30 15 50 15 19 0 37 4 40 8 3 5 87 9 187
10 100 1 186 5 191 8 5 3 15 0 24 -6 8 -7 46 -15 84 -18 39 -2 73 -9 76 -13 3
-5 17 -9 31 -9 14 0 39 -6 56 -14 18 -7 48 -21 69 -30 20 -9 41 -16 47 -16 13
0 58 -27 80 -48 8 -7 25 -20 38 -29 13 -9 36 -36 50 -61 23 -40 28 -43 37 -28
23 37 87 122 108 144 13 12 34 26 48 29 14 3 32 15 42 25 9 10 32 22 52 25 20
3 36 8 36 12 0 3 15 12 33 19 30 13 94 43 127 61 45 24 61 30 94 36 20 4 39
11 42 16 3 5 16 9 30 9 13 0 24 4 24 9 0 4 25 11 56 15 31 3 64 11 74 16 12 6
21 6 25 1 3 -6 17 -4 33 5 15 7 41 14 59 14 17 0 35 4 38 10 7 11 222 10 245
-1 8 -5 32 -11 53 -14 20 -3 37 -10 37 -14 0 -5 11 -12 25 -15 14 -4 25 -11
25 -16 0 -6 10 -10 23 -11 39 -1 100 -42 139 -94 41 -54 91 -170 108 -249 19
-86 14 -231 -11 -310 -43 -140 -80 -239 -104 -280 -23 -39 -23 -44 -9 -64 8
-12 14 -30 12 -40 -1 -9 0 -21 4 -27 8 -14 37 -165 51 -274 l12 -93 55 54 c30
30 65 58 78 62 12 4 22 12 22 17 0 5 22 9 49 9 46 0 52 -3 78 -37 26 -34 28
-43 28 -127 0 -79 -5 -106 -39 -206 -51 -151 -72 -198 -140 -304 -31 -49 -56
-94 -56 -99 0 -6 -12 -26 -27 -45 -37 -49 -52 -97 -53 -170 0 -66 17 -115 45
-126 38 -14 76 -5 111 27 20 17 43 36 52 41 9 5 26 20 37 33 11 14 32 37 47
52 36 37 68 92 68 115 0 28 37 149 76 249 67 170 183 380 231 417 54 41 133
66 133 42 0 -5 11 -14 26 -20 79 -37 63 -218 -28 -317 -23 -25 -86 -144 -135
-255 -11 -25 -28 -62 -37 -83 -16 -34 -35 -148 -24 -137 13 12 108 173 108
181 0 6 16 35 35 65 19 30 35 59 35 64 0 6 23 46 51 91 27 44 54 92 60 106 18
49 74 133 91 139 9 3 29 31 45 62 41 86 185 238 230 244 57 7 79 -9 99 -70 22
-65 36 -80 47 -50 5 15 14 19 32 16 18 -4 26 0 30 13 6 19 35 27 35 10 0 -5
-12 -29 -26 -55 -21 -38 -31 -46 -55 -46 l-29 0 0 -108 c0 -94 -3 -111 -20
-129 -27 -30 -170 -299 -231 -438 -25 -56 -49 -156 -49 -202 0 -50 1 -53 26
-53 26 0 57 27 124 109 41 50 62 71 73 71 4 0 16 9 28 21 16 16 19 28 15 53
-8 42 17 163 48 229 13 29 27 63 31 77 4 14 18 34 30 46 13 11 27 33 31 50 7
29 45 96 70 124 8 8 37 43 65 78 28 35 78 89 111 120 33 31 71 67 84 80 13 12
27 22 31 22 5 0 35 14 66 30 42 22 72 30 108 30 46 0 51 -2 77 -40 15 -21 32
-39 37 -40 6 0 19 37 29 83 20 91 74 264 148 477 17 47 36 105 43 130 7 25 24
70 38 100 14 30 31 73 38 95 6 22 18 49 25 60 21 30 17 37 -10 20 -22 -15 -25
-15 -34 1 -6 11 -17 15 -30 12 -12 -3 -23 -1 -25 6 -3 6 -10 -1 -17 -16 -7
-15 -17 -25 -21 -22 -5 3 -23 -11 -40 -30 -17 -20 -35 -33 -40 -30 -5 3 -9 0
-9 -6 0 -6 -4 -8 -10 -5 -5 3 -10 -1 -10 -11 0 -13 -3 -14 -15 -4 -12 10 -15
9 -15 -6 0 -17 -1 -17 -15 2 -8 10 -15 31 -15 46 0 14 -4 28 -9 30 -5 2 -11
35 -12 73 -4 86 -19 103 -70 78 -37 -18 -153 -130 -189 -181 -20 -30 -21 -37
-10 -58 8 -13 19 -24 27 -24 7 0 13 -5 13 -10 0 -6 16 -26 35 -46 19 -19 35
-32 35 -29 0 3 12 -7 28 -22 35 -36 55 -36 63 2 4 17 7 26 8 22 2 -11 41 12
41 24 0 15 33 45 50 45 27 -1 54 -89 33 -110 -4 -3 -8 -16 -10 -27 -5 -34 -36
-80 -50 -75 -18 7 -28 -41 -14 -71 9 -20 8 -31 -4 -56 -8 -16 -15 -35 -15 -41
0 -18 -86 -95 -114 -102 -14 -3 -26 -9 -26 -13 0 -7 -21 -10 -79 -11 -22 0
-39 7 -52 21 -25 29 -59 18 -59 -21 0 -31 -5 -37 -64 -76 l-40 -26 -17 23
c-27 36 -49 33 -49 -6 0 -51 -28 -172 -45 -199 -9 -13 -25 -26 -35 -29 -17 -4
-20 0 -20 24 0 16 8 37 18 47 10 10 16 24 14 30 -2 7 2 10 12 6 13 -5 14 -1 6
28 -6 18 -10 33 -10 34 0 1 -10 4 -21 7 -21 6 -22 10 -16 78 5 54 3 75 -8 85
-20 20 -22 18 -44 -25 -11 -21 -27 -41 -35 -44 -17 -7 -76 20 -76 34 0 5 -6 9
-14 9 -17 0 -31 36 -46 120 -7 36 -16 70 -20 75 -5 6 -11 44 -13 85 -6 80 -22
193 -37 250 -6 23 -6 36 1 41 7 4 8 27 4 65 -9 72 -12 78 -31 59 -9 -8 -20
-12 -26 -9 -6 4 -14 0 -19 -7 -12 -19 -11 -32 1 -24 6 3 10 -2 10 -12 1 -24
29 -74 30 -52 0 9 6 16 14 16 8 0 11 -8 8 -19 -2 -10 -10 -18 -17 -18 -7 0
-15 -20 -19 -50 -4 -27 -14 -57 -24 -66 -9 -10 -17 -24 -17 -33 0 -9 -8 -15
-18 -15 -13 1 -16 -3 -12 -16 3 -10 1 -21 -5 -25 -6 -3 -7 -11 -4 -17 4 -6 3
-8 -3 -5 -5 3 -16 -3 -23 -14 -8 -10 -25 -19 -38 -19 -23 0 -24 2 -17 59 5 48
4 59 -9 64 -18 7 -20 54 -7 122 10 53 6 63 -24 57 -18 -3 -25 0 -25 12 0 9 -4
16 -9 16 -5 0 -13 12 -18 28 -29 81 -43 132 -43 155 0 40 12 87 21 82 10 -7
21 12 25 43 2 16 -7 37 -22 55 -13 16 -24 37 -24 48 0 10 -4 19 -9 19 -5 0
-12 15 -16 33 -9 48 -36 94 -61 106 -26 11 -77 113 -68 135 3 9 -2 33 -12 54
-10 20 -17 54 -16 75 0 21 -3 48 -7 60 -7 19 -11 14 -25 -35 -10 -32 -22 -61
-28 -64 -7 -5 -9 -2 -5 8 4 11 1 15 -11 13 -9 -2 -20 -4 -24 -4 -4 -1 -13 -8
-22 -16 -15 -15 -46 -11 -46 7 0 5 -4 7 -9 3 -6 -3 -15 4 -21 15 -6 11 -15 18
-19 15 -5 -2 -11 4 -14 15 -3 13 -11 18 -20 14 -9 -3 -16 3 -20 16 -3 12 -10
19 -16 15 -6 -3 -11 -1 -11 5 0 19 -41 71 -51 65 -9 -6 -13 14 -10 48 1 9 -2
17 -7 17 -5 0 -12 9 -15 21 -3 12 -10 18 -15 15 -6 -3 -12 -1 -14 4 -4 13
-108 -36 -108 -50 0 -6 -7 -10 -17 -10 -9 0 -32 -12 -52 -27 -20 -16 -39 -27
-43 -25 -5 1 -8 -4 -8 -12 0 -8 -7 -16 -14 -19 -20 -8 -32 -73 -16 -92 6 -8 9
-19 5 -25 -4 -6 -2 -17 4 -24 12 -15 17 -118 6 -135 -4 -8 -20 -11 -36 -9 -16
3 -29 1 -29 -4 0 -4 -4 -8 -10 -8 -5 0 -10 7 -10 16 0 10 -5 14 -15 10 -9 -3
-18 1 -21 9 -4 8 -10 13 -14 10 -11 -7 -24 71 -15 86 4 6 2 15 -6 19 -10 7
-11 14 0 36 7 16 8 30 3 33 -14 9 -25 51 -13 51 5 0 12 13 16 28 3 16 19 39
35 50 18 14 33 38 41 64 6 24 21 52 33 63 31 29 39 93 24 182 -9 58 -9 78 0
93 14 23 16 50 3 50 -15 0 -21 71 -10 119 7 31 7 57 0 81 -15 54 -42 237 -67
464 -15 133 -18 145 -29 120 -7 -16 -10 -32 -8 -36 2 -5 -3 -8 -11 -8 -9 0
-16 7 -16 15 0 8 -5 14 -12 13 -13 -3 -14 0 -23 85 l-6 57 -111 0 c-101 0
-110 -2 -115 -20 -3 -11 -9 -20 -15 -20 -13 0 -88 -76 -88 -89 0 -6 -5 -11
-11 -11 -6 0 -17 -7 -26 -15 -12 -13 -18 -13 -31 -3 -12 10 -16 10 -19 1 -9
-25 -32 -12 -63 32 -24 35 -31 54 -28 83 l3 37 -499 3 c-374 2 -502 -1 -507
-10 -4 -6 -10 -32 -14 -56 -7 -47 -55 -136 -63 -114 -2 6 -12 12 -23 12 -11 0
-28 14 -39 32 -18 31 -18 32 -1 57 10 14 19 38 19 54 l0 27 -307 0 -306 0 -20
-30 c-11 -16 -23 -30 -27 -30 -5 0 -8 -11 -8 -25 0 -14 -4 -25 -10 -25 -5 0
-10 -6 -10 -13 0 -7 -11 -28 -24 -47 -13 -20 -25 -44 -27 -55 -3 -11 -11 -20
-19 -20 -24 0 -40 -21 -42 -58 -2 -19 -7 -33 -11 -30 -4 3 -8 -24 -8 -59 1
-34 -1 -74 -3 -88 -2 -14 -5 -31 -5 -37 -1 -7 -8 -13 -16 -13 -7 0 -18 -7 -23
-15 -16 -30 -72 -7 -72 30 0 13 -4 25 -10 27 -10 3 -15 42 -12 96 2 27 8 35
32 43 17 6 30 15 30 20 0 5 7 9 16 9 13 0 15 10 10 63 -3 35 -11 87 -17 117
-6 29 -9 73 -5 97 l6 43 -40 0 c-29 0 -40 -4 -40 -15z m1268 -241 c6 -1 17 -2
23 -2 14 -2 -46 -62 -61 -62 -13 0 -13 19 2 60 7 23 13 29 17 19 3 -7 12 -14
19 -15z m-362 1 c4 -8 13 -15 20 -15 8 0 30 -15 48 -34 36 -35 48 -81 46 -180
0 -26 4 -53 9 -60 11 -13 -3 -45 -15 -33 -4 3 -15 -3 -25 -14 -10 -12 -23 -18
-28 -14 -6 3 -11 1 -11 -4 0 -6 -8 -11 -17 -11 -23 -1 -73 -45 -73 -64 0 -9
-9 -50 -21 -92 -12 -42 -19 -89 -16 -104 7 -34 -2 -72 -15 -64 -6 4 -13 2 -17
-5 -8 -12 -89 -30 -109 -23 -6 2 -12 10 -12 17 0 8 -8 19 -17 24 -10 6 -14 11
-9 11 5 0 1 9 -8 19 -11 12 -15 25 -10 33 4 7 4 10 -1 6 -9 -8 -35 23 -57 69
-17 34 -10 114 11 121 7 2 22 25 35 50 25 51 36 173 16 197 -16 19 5 70 47
112 39 39 46 42 76 28 11 -4 23 -3 29 3 9 9 15 8 26 0 11 -10 17 -9 27 5 6 9
14 14 17 12 3 -3 11 1 18 10 16 19 29 19 36 0z m726 -907 c9 -25 4 -32 -47
-83 -31 -30 -62 -55 -70 -55 -7 0 -16 -6 -19 -12 -3 -9 -9 -7 -21 7 -17 21
-13 57 11 103 8 15 14 33 14 39 0 7 10 15 23 17 12 3 31 7 42 10 39 8 58 1 67
-26z m1664 -587 c24 4 36 -4 51 -36 9 -19 20 -35 25 -35 4 0 8 -26 8 -57 0
-41 -6 -68 -21 -92 -42 -69 -72 -83 -116 -54 -25 17 -26 17 -18 -7 25 -81 50
-115 66 -89 7 11 9 11 9 1 0 -9 13 -12 43 -11 24 2 48 -1 55 -5 6 -4 14 -29
18 -57 4 -27 11 -52 15 -55 16 -10 9 -39 -16 -63 -14 -13 -25 -27 -25 -33 0
-5 -4 -7 -8 -4 -5 3 -15 -6 -22 -20 -8 -13 -19 -23 -26 -20 -7 3 -16 -3 -19
-13 -9 -28 -43 -33 -56 -8 -20 36 -55 64 -88 72 -21 4 -35 15 -41 31 -6 14
-17 27 -25 30 -8 4 -15 12 -15 20 0 8 -4 22 -9 32 -25 44 -53 165 -46 198 3
21 2 41 -5 49 -12 15 -3 68 11 59 5 -3 9 2 9 11 0 9 4 14 9 11 5 -3 11 0 14 8
6 16 47 29 47 14 0 -5 4 -7 8 -4 4 3 17 -15 28 -40 10 -24 24 -42 29 -41 6 2
10 35 11 73 1 100 3 116 14 109 6 -3 10 -1 10 4 0 6 7 11 15 11 9 0 18 7 21
15 5 11 10 13 19 5 7 -6 17 -10 21 -9z m-1468 -16 c2 -9 1 -37 -3 -61 -6 -39
-8 -43 -21 -29 -22 22 -29 80 -13 99 17 19 33 15 37 -9z m1413 -899 c6 -17 18
-48 26 -70 29 -80 12 -194 -46 -318 -30 -62 -81 -128 -99 -128 -6 0 -12 -7
-16 -15 -6 -15 -35 -19 -72 -9 -34 9 -85 119 -91 196 -4 63 -2 74 45 208 37
106 94 180 138 180 12 0 26 4 29 10 11 18 74 -22 86 -54z m-2707 -1156 c3 -22
11 -40 16 -40 6 0 10 -9 10 -20 0 -12 8 -37 18 -58 10 -20 18 -53 17 -72 -1
-19 4 -42 10 -50 14 -17 26 -60 18 -60 -4 0 -30 25 -59 55 -37 38 -55 66 -60
92 -4 21 -13 48 -21 60 -10 14 -12 34 -8 60 11 63 16 73 34 73 14 0 20 -10 25
-40z m3603 -822 c4 -7 9 -26 10 -43 1 -16 5 -54 9 -82 4 -37 3 -53 -5 -53 -6
0 -11 5 -11 11 0 6 -13 23 -29 38 -40 38 -47 79 -19 114 24 30 33 33 45 15z
m-117 -168 c10 -5 21 -24 25 -41 4 -17 13 -33 20 -35 7 -3 16 -15 19 -27 12
-50 38 -289 41 -375 1 -52 8 -99 14 -105 16 -16 14 -46 -4 -63 -8 -9 -15 -26
-15 -39 0 -13 -5 -27 -11 -31 -6 -3 -8 -16 -5 -29 4 -17 0 -27 -19 -39 -14 -9
-27 -27 -31 -41 -3 -14 -10 -25 -15 -25 -5 0 -9 -9 -9 -20 0 -11 -4 -20 -10
-20 -5 0 -10 -11 -10 -24 0 -29 -17 -78 -31 -86 -5 -4 -13 -33 -18 -66 -5 -32
-9 -53 -10 -46 0 7 -5 11 -10 8 -14 -9 -31 51 -25 84 5 21 -1 37 -21 64 -26
34 -27 38 -15 87 11 44 10 55 -5 83 -15 27 -16 41 -6 101 12 77 -3 210 -22
198 -7 -4 -7 9 -3 38 10 55 8 119 -3 133 -8 10 -12 38 -26 172 -4 34 -1 60 9
78 8 16 16 22 18 15 3 -8 9 -9 19 -4 8 5 23 11 34 12 11 2 25 10 32 19 6 8 20
16 32 17 12 1 21 5 21 9 0 11 18 10 40 -2z m-6432 -173 c8 -10 11 -28 8 -40
-8 -30 -54 -80 -66 -72 -27 17 -51 -167 -26 -200 12 -16 13 -16 29 0 9 9 17
25 17 36 0 23 39 79 54 79 11 0 40 87 50 151 4 19 12 44 20 54 13 18 14 18 25
-2 6 -12 12 -36 13 -55 2 -25 -1 -33 -13 -32 -9 1 -16 -4 -17 -10 -1 -6 -6
-45 -11 -86 -12 -91 -7 -114 25 -129 37 -16 49 -14 70 16 10 15 29 37 42 50
12 13 22 30 22 38 0 17 17 23 47 17 31 -6 33 -52 3 -52 -22 0 -23 -1 -14 -24
3 -9 12 -16 19 -16 20 0 24 -23 13 -73 -6 -29 -15 -47 -24 -47 -8 0 -15 -6
-15 -12 -3 -28 -5 -34 -19 -65 -11 -24 -20 -31 -32 -27 -19 6 -58 -28 -58 -51
0 -13 -25 -21 -52 -16 -5 0 -8 -5 -8 -13 0 -7 -9 -16 -20 -19 -11 -3 -20 -13
-20 -22 0 -28 -23 -41 -70 -42 -44 0 -46 1 -68 46 -16 34 -21 55 -16 84 4 22
3 37 -4 37 -5 0 -13 16 -16 35 -4 19 -12 35 -17 35 -6 0 -10 12 -9 28 3 44 1
54 -11 46 -9 -5 -10 1 -5 20 4 15 2 26 -4 26 -5 0 -10 6 -10 13 0 7 -9 18 -19
24 -25 16 -53 112 -49 171 3 45 4 47 41 56 20 5 37 13 37 18 0 5 11 6 25 2 15
-4 25 -2 25 5 0 13 58 40 80 38 8 -1 21 -10 28 -20z m5730 -59 c7 10 14 9 32
-6 21 -17 25 -31 28 -91 5 -87 -10 -131 -44 -131 -14 0 -24 -6 -24 -14 0 -19
-30 -43 -31 -25 0 10 -2 11 -6 2 -3 -10 -9 -9 -20 3 -15 14 -17 14 -26 -1 -5
-9 -6 -28 -3 -42 5 -16 3 -22 -4 -18 -5 3 -10 -2 -10 -14 0 -25 -46 -56 -85
-56 -24 0 -31 5 -34 25 -1 14 -11 36 -20 50 -15 22 -18 44 -12 104 2 20 64 88
70 77 4 -5 20 -3 39 5 25 10 33 19 32 36 -3 36 -1 50 8 44 9 -5 42 29 42 43 0
14 44 18 53 6 4 -6 10 -5 15 3z m522 -759 c6 -10 10 -29 10 -43 0 -14 5 -26
10 -26 6 0 10 -9 10 -21 0 -12 7 -37 17 -56 14 -31 15 -40 3 -72 -8 -20 -13
-59 -13 -87 1 -51 -20 -100 -43 -99 -18 0 -44 33 -44 55 0 28 -20 15 -21 -13
0 -12 -3 -16 -6 -10 -2 7 0 28 6 46 12 35 2 83 -15 81 -15 -3 -41 20 -48 42
-4 15 2 28 24 49 36 35 54 85 46 131 -6 27 -4 34 9 34 8 0 15 4 15 10 0 15 29
0 40 -21z m-4895 -129 c3 -5 1 -10 -4 -10 -6 0 -11 5 -11 10 0 6 2 10 4 10 3
0 8 -4 11 -10z m-85 -41 c0 -6 -4 -7 -10 -4 -5 3 -10 11 -10 16 0 6 5 7 10 4
6 -3 10 -11 10 -16z m-2340 -220 c0 -27 -35 -52 -75 -53 -11 -1 -23 -5 -27
-11 -9 -12 -10 12 -2 53 4 21 11 29 20 25 8 -3 14 0 14 6 0 6 9 11 19 11 11 0
23 5 27 11 9 16 24 -9 24 -42z m2530 34 c11 -10 20 -30 20 -45 0 -23 -4 -28
-24 -28 -28 0 -41 28 -32 66 8 29 10 29 36 7z m3753 -25 c4 -10 8 -10 15 1 23
32 68 -51 57 -105 -3 -17 -1 -42 4 -55 5 -13 10 -18 10 -11 1 7 5 11 10 8 10
-6 21 26 21 61 0 27 30 81 49 88 8 3 18 0 22 -7 6 -9 12 -9 26 2 10 8 15 10
11 6 -4 -5 3 -18 16 -30 37 -33 70 -138 60 -194 -4 -26 -8 -56 -9 -67 0 -12
-11 -38 -24 -58 -18 -30 -26 -35 -40 -28 -22 12 -68 -27 -77 -65 -6 -22 -11
-25 -33 -19 -14 4 -28 12 -30 18 -2 7 -17 25 -33 40 -18 18 -28 39 -28 58 0
16 -4 29 -10 29 -6 0 -10 28 -10 65 0 37 -4 65 -10 65 -5 0 -10 7 -10 16 0 8
-4 13 -9 10 -5 -3 -23 7 -40 23 -19 18 -31 24 -31 15 0 -8 -6 -11 -15 -8 -9 4
-15 0 -15 -7 0 -11 -2 -11 -10 1 -7 12 -15 13 -38 4 -25 -10 -32 -9 -46 7 -9
11 -16 25 -16 33 0 16 23 37 44 40 9 1 33 14 55 28 36 24 40 24 56 9 13 -12
19 -13 22 -3 3 6 8 10 13 7 5 -3 11 4 15 15 7 23 21 26 28 8z m-102 -375 c15
-4 37 -58 54 -134 4 -15 -2 -56 -13 -95 -11 -38 -23 -88 -27 -111 -4 -24 -11
-43 -16 -43 -5 0 -9 -8 -9 -17 0 -10 -7 -36 -14 -58 -12 -34 -19 -40 -43 -40
-15 -1 -33 -4 -40 -8 -19 -12 -62 22 -78 60 -8 19 -19 32 -25 28 -5 -3 -10 2
-10 12 0 15 -2 16 -11 3 -10 -13 -10 -13 -6 1 3 8 8 46 12 82 5 41 13 70 21
75 8 5 18 31 23 60 4 28 13 57 19 64 5 7 13 36 17 63 8 56 22 78 41 71 7 -3
16 -1 19 4 3 5 19 4 38 -2 17 -5 39 -12 48 -15z m-3381 -159 c0 -14 4 -23 10
-19 6 3 10 -1 10 -9 0 -20 -24 -21 -40 -1 -12 15 -5 55 11 55 5 0 9 -12 9 -26z
m189 -44 c0 -10 -3 -8 -9 5 -12 27 -12 43 0 25 5 -8 9 -22 9 -30z m3867 -13
c8 3 14 -1 14 -11 0 -9 4 -16 10 -16 5 0 12 -11 16 -25 3 -14 10 -25 14 -25 4
0 11 -28 15 -62 6 -58 13 -85 36 -130 16 -31 34 -63 39 -68 16 -16 40 -76 50
-127 6 -32 16 -72 21 -89 14 -47 1 -114 -22 -114 -11 0 -19 -6 -19 -14 0 -22
-37 -15 -49 9 -19 40 -24 61 -22 92 2 26 -2 32 -21 35 -17 2 -36 -10 -73 -47
-55 -55 -91 -75 -135 -75 -17 0 -30 -3 -30 -8 0 -4 -10 -12 -22 -17 -27 -12
-88 11 -88 32 0 7 -4 12 -8 11 -14 -5 -61 53 -73 89 -9 28 -9 49 1 92 7 31 15
58 19 61 3 3 17 26 31 53 14 26 35 58 47 72 13 13 23 27 23 31 0 4 16 26 35
50 19 23 35 47 35 53 0 6 7 11 15 11 8 0 15 6 15 14 0 8 7 16 15 19 8 3 23 26
35 52 11 25 27 45 35 45 8 0 15 6 16 13 0 9 2 9 5 0 3 -7 12 -9 20 -6z m1179
-223 c25 -27 45 -54 45 -61 0 -18 -19 -26 -33 -15 -12 10 -18 12 -37 12 -16 0
-50 62 -50 92 0 38 23 30 75 -28z m-5335 -114 c0 -13 -6 -20 -17 -19 -11 0
-13 3 -5 6 6 2 12 11 12 19 0 8 2 14 5 14 3 0 5 -9 5 -20z m-1060 -206 c10
-34 10 -48 1 -57 -6 -6 -11 -26 -11 -44 0 -20 -8 -41 -20 -53 -11 -11 -20 -29
-20 -40 0 -12 -7 -32 -16 -46 -9 -14 -20 -42 -25 -62 -4 -20 -15 -68 -24 -107
-36 -154 -40 -419 -9 -540 8 -33 18 -73 21 -90 3 -16 11 -33 17 -37 19 -12 1
-18 -37 -11 -20 3 -37 10 -37 15 0 17 -30 40 -45 34 -8 -3 -28 6 -44 19 -16
14 -38 25 -50 25 -23 0 -27 10 -10 27 9 9 8 16 -4 27 -12 12 -17 13 -21 3 -4
-6 -3 -1 1 13 3 14 7 68 8 120 0 52 4 113 9 135 5 29 5 36 -3 25 -6 -8 -11
-23 -11 -33 0 -10 -4 -15 -10 -12 -5 3 -10 1 -10 -5 0 -6 -7 -18 -15 -26 -12
-12 -15 -12 -15 -2 0 10 -2 10 -9 -1 -7 -11 -13 -12 -23 -4 -7 6 -30 14 -51
18 -28 6 -37 11 -33 22 3 8 6 27 6 43 0 30 25 64 41 55 5 -4 19 1 30 9 19 13
25 13 50 1 15 -8 29 -20 31 -27 14 -40 76 58 82 128 3 45 13 67 26 59 4 -3 10
5 14 18 9 36 7 107 -4 107 -12 0 -13 64 -1 105 4 17 25 47 45 67 23 23 36 45
36 63 0 16 4 24 10 20 6 -4 18 11 27 35 10 25 21 39 29 36 8 -3 16 -1 19 4 4
6 14 10 24 10 13 0 22 -13 31 -46z m6148 9 c33 -49 64 -122 67 -160 3 -34 -2
-52 -22 -83 -15 -22 -30 -40 -35 -40 -5 0 -22 -14 -39 -31 -33 -34 -42 -31
-55 19 -3 12 -10 22 -14 22 -16 0 -17 40 -4 121 18 121 27 143 52 147 12 2 22
8 22 13 0 15 15 10 28 -8z m-6435 -82 c5 -19 2 -71 -7 -126 -4 -26 -28 -55
-47 -55 -3 0 -9 19 -12 42 -3 24 -11 44 -16 46 -6 2 -11 19 -11 38 0 32 10 40
43 35 4 0 7 5 7 13 0 13 13 23 31 25 4 1 9 -8 12 -18z m4622 -88 c13 -16 25
-38 25 -50 0 -13 5 -23 10 -23 6 0 10 -14 10 -31 0 -19 4 -28 11 -23 8 5 8 1
0 -14 -6 -11 -11 -30 -11 -41 0 -36 -27 -23 -42 22 -50 144 -55 162 -44 174
15 16 14 17 41 -14z m-4854 -113 c14 0 10 -52 -5 -72 -7 -10 -16 -15 -19 -11
-4 3 -13 0 -21 -6 -23 -20 -36 -4 -36 43 0 42 21 101 32 91 3 -3 11 2 19 11
13 16 14 14 17 -19 2 -20 7 -37 13 -37z m4697 48 c9 -9 15 -9 23 -1 13 13 44
-13 74 -65 17 -28 18 -36 6 -65 -7 -17 -13 -39 -13 -49 1 -16 -8 -26 -75 -86
l-32 -29 -5 23 c-4 13 -12 24 -19 24 -33 0 -66 137 -37 155 5 3 7 12 4 19 -3
8 6 23 20 34 14 11 26 27 26 36 0 19 11 21 28 4z m1160 -281 c2 -9 13 -17 25
-19 21 -3 22 -7 22 -122 0 -97 -3 -123 -16 -135 -9 -9 -19 -27 -22 -42 -6 -22
-11 -25 -40 -21 -26 3 -40 -2 -56 -19 -27 -29 -87 -28 -113 2 -21 24 -30 24
-46 -1 -7 -11 -19 -20 -26 -20 -8 0 -16 -5 -18 -12 -3 -7 -13 -3 -27 11 -14
14 -26 19 -30 13 -3 -5 -17 -12 -31 -14 -36 -5 -60 26 -60 77 0 24 -7 59 -15
78 -16 38 -21 142 -6 119 11 -18 86 -28 95 -13 4 6 18 11 32 11 13 0 24 6 24
13 0 8 4 7 11 -3 8 -11 12 -12 16 -2 2 6 13 12 24 12 10 0 19 6 19 13 0 20 41
38 77 33 25 -3 36 0 47 15 8 11 15 16 17 10 3 -7 15 -1 29 12 28 26 63 28 68
4z m-668 -544 c1 -5 3 -25 6 -45 4 -24 2 -38 -5 -38 -6 0 -11 -8 -11 -17 -1
-16 -2 -16 -15 1 -18 24 -20 92 -2 99 18 8 27 8 27 0z m-776 -120 c3 -21 6
-55 6 -76 0 -21 7 -54 15 -74 8 -19 15 -50 15 -67 0 -39 20 -103 42 -136 17
-26 42 -129 34 -138 -3 -2 1 -20 9 -39 17 -41 19 -79 5 -88 -6 -4 -7 -23 -4
-44 5 -29 0 -51 -20 -93 -14 -30 -26 -60 -26 -66 0 -7 -6 -11 -12 -9 -8 1 -14
-10 -16 -25 -2 -16 -8 -28 -13 -28 -5 0 -18 -8 -29 -17 -53 -48 -69 -59 -105
-78 -21 -11 -47 -33 -57 -50 -10 -16 -18 -25 -18 -20 0 6 -7 -3 -15 -19 -21
-40 -20 -48 25 -117 40 -63 43 -73 44 -191 1 -32 -3 -48 -11 -48 -10 0 -13 25
-13 90 l0 90 -60 0 -60 0 0 -90 c0 -89 0 -90 -25 -90 -23 0 -25 -3 -25 -51 0
-41 -3 -52 -19 -56 -26 -7 -30 -46 -24 -220 3 -92 1 -157 -5 -173 -8 -18 -11
46 -11 238 l-1 262 -60 0 -60 0 0 -151 c0 -108 -3 -148 -11 -143 -6 3 -15 0
-20 -7 -6 -10 -9 -11 -9 -1 0 17 -27 15 -37 -3 -7 -13 -13 -10 -31 14 -22 30
-52 48 -124 72 -21 7 -38 16 -38 21 0 4 -7 5 -15 2 -11 -5 -15 1 -15 25 0 61
82 67 151 11 21 -16 40 -30 43 -30 3 0 6 38 6 84 l0 84 -40 16 c-49 20 -139
21 -184 2 -43 -18 -94 -81 -102 -126 -3 -19 -8 -42 -11 -50 -5 -12 -7 -12 -10
3 -3 9 -11 17 -19 17 -31 0 -30 86 2 112 60 51 74 83 55 134 -15 42 -17 110
-3 127 5 6 15 31 22 53 10 34 17 42 36 42 14 0 35 11 49 26 25 27 45 34 45 16
0 -5 5 -10 10 -10 13 0 13 113 0 126 -5 5 -7 19 -4 32 8 30 42 29 76 -3 15
-14 34 -25 42 -25 8 0 21 -7 30 -15 23 -23 146 -8 146 18 0 7 4 6 10 -3 13
-20 40 -4 60 36 8 16 21 30 27 31 17 4 48 35 64 65 11 20 27 99 30 148 0 8 8
33 16 55 10 25 15 73 15 130 0 97 28 205 54 205 7 0 22 17 33 38 11 20 20 33
21 27 0 -5 13 12 29 39 17 29 32 72 36 105 6 52 31 111 46 111 3 0 9 -17 13
-37z m588 5 c3 -31 3 -116 -2 -112 -10 11 -27 -78 -22 -124 4 -41 1 -53 -17
-71 -11 -11 -21 -16 -21 -11 0 6 -6 10 -14 10 -20 0 -24 51 -9 109 7 28 17 78
22 112 10 57 32 99 53 99 4 0 9 -6 10 -12z m-4567 -286 c-3 -4 -10 0 -16 8 -8
13 -11 13 -23 -2 -27 -36 -76 -12 -76 36 0 21 58 76 81 76 10 0 20 6 20 13 1
6 6 -19 11 -56 5 -38 7 -72 3 -75z m4369 -112 c-3 -19 -12 -51 -21 -71 l-15
-36 -23 23 c-13 13 -31 24 -39 24 -8 0 -18 9 -21 20 -8 25 27 71 70 93 27 14
31 14 43 -1 7 -10 10 -30 6 -52z m-1564 20 c18 -33 -11 -55 -37 -29 -9 9 -9
16 0 30 15 24 24 24 37 -1z m-222 -9 c6 -1 12 -13 12 -27 0 -14 -4 -23 -10
-19 -6 3 -13 -2 -17 -12 -4 -10 -11 -21 -17 -25 -6 -4 -5 -21 3 -48 14 -47 5
-220 -11 -220 -12 0 -40 67 -45 108 -2 19 -11 45 -19 58 -11 17 -14 34 -9 56
3 18 9 56 12 83 l5 50 41 -1 c23 -1 48 -2 55 -3z m288 -101 c16 0 18 -9 5 -28
-12 -20 -25 -16 -32 10 -6 24 2 51 9 30 2 -7 10 -12 18 -12z m2342 -96 c17
-45 16 -97 -1 -129 -10 -18 -16 -21 -34 -14 -14 5 -23 17 -23 29 0 11 -6 23
-14 26 -12 4 -13 17 -9 57 4 28 11 57 17 64 21 22 49 8 64 -33z m-918 19 c0
-10 3 -28 6 -40 5 -17 -1 -25 -25 -37 -17 -9 -31 -13 -31 -9 0 5 -4 2 -9 -6
-7 -11 -10 -8 -16 10 -5 14 -3 25 3 27 6 2 9 9 6 17 -7 16 30 55 51 55 8 0 15
-8 15 -17z m81 -125 c18 -29 20 -45 16 -128 -3 -69 -11 -109 -27 -145 -25 -55
-105 -145 -130 -145 -9 0 -27 11 -40 25 -13 14 -29 25 -36 25 -25 0 -32 35
-27 122 4 61 11 93 22 105 9 10 28 34 41 53 13 19 30 41 37 48 7 7 16 18 20
25 11 17 65 46 86 47 9 0 27 -15 38 -32z m676 -57 c-2 -27 -7 -35 -24 -37 -14
-3 -26 3 -33 15 -14 26 -14 26 17 57 30 31 43 20 40 -35z m-2721 -38 c-3 -16
-9 -44 -12 -63 -8 -49 -35 -99 -50 -93 -7 2 -22 0 -33 -7 -20 -10 -21 -8 -21
55 0 57 3 69 25 90 13 14 31 25 40 25 8 0 15 5 15 10 0 6 10 10 21 10 18 0 20
-4 15 -27z m501 -88 c27 -9 34 -32 36 -128 2 -73 0 -79 -28 -110 -17 -19 -37
-31 -47 -29 -10 2 -18 -1 -18 -7 0 -6 -11 -7 -27 -2 -38 10 -52 8 -62 -7 -4
-7 -25 -14 -47 -15 -45 -3 -63 14 -64 56 0 17 -9 37 -22 49 -13 11 -17 17 -10
13 8 -4 12 3 12 24 0 16 5 33 10 36 6 3 10 20 10 36 0 18 4 28 10 24 6 -3 10
3 10 13 0 11 9 22 19 25 25 6 71 -3 71 -15 0 -5 5 -6 10 -3 6 3 10 1 10 -6 0
-20 29 24 30 44 0 15 6 17 38 13 20 -2 47 -7 59 -11z m-290 -157 c-3 -8 -6 -5
-6 6 -1 11 2 17 5 13 3 -3 4 -12 1 -19z m-412 -191 c4 -22 2 -43 -4 -51 -6 -7
-8 -16 -4 -19 3 -4 1 -7 -5 -7 -6 0 -12 -10 -14 -22 -2 -18 5 -27 34 -41 45
-23 85 -62 104 -102 8 -17 9 -22 2 -11 -41 60 -55 69 -110 64 -45 -5 -56 -10
-85 -44 l-33 -39 0 33 0 32 -54 0 -54 0 -14 45 c-8 24 -12 42 -8 40 4 -3 15 4
25 15 10 11 26 20 35 20 11 0 20 10 24 25 5 18 13 25 31 25 16 0 26 7 31 23 8
25 41 62 64 69 19 6 27 -7 35 -55z m2870 27 c16 -39 19 -51 8 -41 -3 4 -12 2
-19 -4 -16 -13 -28 22 -20 57 8 32 13 30 31 -12z m-4398 -91 c-3 -10 -5 -2 -5
17 0 19 2 27 5 18 2 -10 2 -26 0 -35z m833 -65 c0 -97 -1 -100 -18 -85 -27 24
-107 33 -140 16 -48 -25 -82 -72 -103 -144 -18 -59 -21 -89 -17 -207 3 -134 3
-138 -17 -136 -17 3 -20 -3 -23 -37 -2 -22 -12 -51 -22 -65 -19 -25 -20 -24
-20 202 0 194 2 227 14 222 8 -3 16 -18 18 -32 4 -32 21 -36 26 -7 11 57 84
183 136 235 30 30 55 59 56 63 0 12 43 46 58 47 6 0 12 4 12 9 0 5 8 12 18 14
9 3 18 5 20 6 1 0 2 -45 2 -101z m3087 60 c-3 -7 -5 -2 -5 12 0 14 2 19 5 13
2 -7 2 -19 0 -25z m-2944 -186 c-2 -108 -7 -219 -12 -247 -6 -36 -9 19 -10
202 -1 198 2 251 12 248 9 -4 11 -52 10 -203z m162 128 c4 -6 10 -8 15 -5 4 3
8 -5 7 -18 0 -12 3 -30 7 -39 7 -16 2 -18 -48 -18 l-56 0 0 -227 c0 -124 -2
-224 -4 -222 -2 2 -7 45 -11 94 -3 50 -11 109 -17 132 -12 51 4 194 27 226 8
12 15 33 15 48 0 14 3 29 7 32 10 11 51 8 58 -3z m-1198 -6 c-3 -3 -12 -4 -19
-1 -8 3 -5 6 6 6 11 1 17 -2 13 -5z m3803 -14 c0 -5 -4 -10 -10 -10 -5 0 -10
5 -10 10 0 6 5 10 10 10 6 0 10 -4 10 -10z m-40 -35 c-9 -16 -16 -21 -21 -14
-3 6 1 19 10 29 22 23 27 15 11 -15z m-3730 -20 c0 -3 -19 -5 -42 -5 -42 1
-42 1 -18 14 22 13 60 7 60 -9z m2124 5 c16 -7 10 -9 -26 -9 -31 -1 -48 -5
-49 -13 0 -10 -2 -10 -6 0 -2 6 -11 12 -19 12 -8 0 -14 4 -14 10 0 5 -26 11
-57 13 -32 2 -11 2 46 0 57 -3 113 -8 125 -13z m-2340 -46 c9 -13 25 -60 36
-105 10 -45 22 -84 25 -87 12 -12 24 23 31 88 15 147 23 89 23 -180 l0 -285
-19 40 c-10 22 -19 50 -19 62 -2 48 -41 100 -41 54 0 -10 -8 -25 -17 -32 -15
-13 -16 -12 -8 11 4 14 10 83 12 154 6 157 -13 253 -59 297 -15 16 -28 31 -28
34 0 11 49 -27 64 -51z m4526 47 c0 -5 -7 -12 -16 -15 -14 -5 -15 -4 -4 9 14
17 20 19 20 6z m-4117 -8 c-7 -2 -21 -2 -30 0 -10 3 -4 5 12 5 17 0 24 -2 18
-5z m87 -19 c0 -3 -7 -12 -15 -20 -13 -14 -15 -13 -15 5 0 12 6 21 15 21 8 0
15 -3 15 -6z m3990 -1 c0 -5 -5 -15 -10 -23 -8 -12 -10 -11 -10 8 0 12 5 22
10 22 6 0 10 -3 10 -7z m-4224 -145 c8 -68 18 -143 22 -168 l8 -45 12 47 c7
26 13 80 14 120 1 65 2 68 8 28 l6 -45 5 40 c3 22 6 -60 7 -182 1 -123 0 -223
-3 -223 -13 0 -35 79 -35 129 0 77 -16 100 -24 35 -10 -75 -25 -147 -36 -164
-6 -10 -10 86 -10 274 0 159 3 287 6 283 4 -3 13 -61 20 -129z m3093 -5 c0
-25 -1 -26 -9 -8 -12 27 -12 35 0 35 6 0 10 -12 9 -27z m153 14 c-6 -7 -16
-24 -21 -38 -9 -22 -10 -21 -10 14 -1 31 2 37 20 37 17 0 19 -3 11 -13z m374
-4 c17 -23 18 -76 2 -70 -7 2 -12 15 -10 29 3 31 -19 51 -50 46 -18 -2 -23 -9
-23 -33 0 -29 -10 -45 -29 -45 -12 0 1 57 16 75 18 20 78 19 94 -2z m-4006
-15 c8 -14 16 -59 18 -115 4 -80 1 -98 -18 -137 -21 -45 -22 -46 -71 -46 l-49
0 0 146 c0 164 4 173 70 174 26 0 39 -6 50 -22z m1199 -35 l-1 -58 -12 40
c-12 42 -29 51 -72 41 -71 -18 -71 -216 -1 -240 32 -12 55 6 74 57 l11 32 1
-42 c1 -54 -18 -73 -75 -73 -42 0 -46 2 -60 35 -14 35 -18 151 -6 191 4 12 16
33 27 48 16 22 28 26 67 26 l48 0 -1 -57z m1191 -71 c0 -123 -1 -129 -22 -140
-31 -15 -48 -17 -79 -9 -38 10 -54 49 -54 132 1 60 5 79 25 109 23 34 28 36
78 36 l52 0 0 -128z m2260 77 c23 -67 61 -124 72 -107 6 8 8 -9 6 -49 -5 -83
-33 -115 -93 -111 l-40 3 -3 144 c-3 142 4 177 32 168 6 -2 18 -24 26 -48z
m64 16 c9 -13 16 -39 15 -57 -1 -34 -3 -32 -13 15 -4 15 -15 36 -26 47 -14 14
-16 20 -6 20 7 0 21 -11 30 -25z m-4014 -7 c11 -18 15 -69 18 -220 l4 -197 60
-3 60 -3 -20 -24 c-18 -23 -22 -24 -59 -13 -35 10 -44 19 -62 61 -11 28 -21
60 -21 73 0 27 -35 88 -50 88 -5 0 -10 -17 -11 -37 0 -21 -7 -54 -14 -73 -12
-31 -14 -16 -14 149 -1 163 1 186 17 202 25 26 74 24 92 -3z m2547 -245 c-2
-21 -4 -4 -4 37 0 41 2 58 4 38 2 -21 2 -55 0 -75z m-70 10 c-2 -16 -4 -3 -4
27 0 30 2 43 4 28 2 -16 2 -40 0 -55z m743 62 c-7 -8 -10 -27 -7 -42 5 -26 4
-26 -9 -8 -22 30 -18 65 7 65 18 0 19 -2 9 -15z m-2588 -138 c-8 -17 -11 -5
-10 58 l1 80 10 -58 c6 -40 6 -65 -1 -80z m1668 93 c0 -5 6 -7 14 -4 16 6 28
-19 20 -41 -4 -9 -19 -15 -42 -15 -28 0 -33 3 -24 12 16 16 15 45 0 51 -7 3
-3 6 10 6 12 1 22 -3 22 -9z m634 -60 c-6 -5 -24 21 -24 34 0 6 6 1 14 -10 8
-10 12 -21 10 -24z m-2669 -84 c30 -59 42 -66 121 -66 43 0 55 5 82 31 l32 31
0 -35 c0 -32 -4 -37 -36 -47 -20 -7 -56 -10 -80 -7 -27 3 -45 0 -47 -7 -6 -17
-65 51 -87 101 -11 25 -20 47 -20 49 0 13 11 -3 35 -50z m-615 -65 c0 -22 -82
-27 -100 -6 -11 13 -5 15 44 15 31 0 56 -4 56 -9z m1153 2 c-7 -2 -19 -2 -25
0 -7 3 -2 5 12 5 14 0 19 -2 13 -5z"/>
<path d="M2021 5573 c-1 -6 -10 -9 -21 -6 -23 6 -24 3 -8 -31 l11 -26 14 27
c7 14 12 31 9 37 -3 7 -5 7 -5 -1z"/>
<path d="M6040 1155 l0 -75 60 0 60 0 0 75 0 75 -60 0 -60 0 0 -75z"/>
<path d="M3242 705 c0 -16 2 -22 5 -12 2 9 2 23 0 30 -3 6 -5 -1 -5 -18z"/>
<path d="M2694 765 c-23 -35 -16 -176 11 -205 16 -18 20 -18 46 -5 38 20 49
44 49 103 0 66 -16 107 -46 121 -35 16 -41 14 -60 -14z"/>
<path d="M3412 798 c-7 -7 -12 -17 -12 -24 0 -17 38 -24 44 -8 3 8 13 14 22
14 13 0 14 3 4 15 -15 18 -42 19 -58 3z"/>
<path d="M6581 10834 c0 -11 3 -14 6 -6 3 7 2 16 -1 19 -3 4 -6 -2 -5 -13z"/>
<path d="M8160 10321 c0 -4 -12 -21 -27 -37 -39 -43 -143 -218 -143 -243 0
-11 6 -21 14 -21 26 0 46 12 46 27 0 10 6 12 23 7 12 -4 24 -9 27 -13 9 -11
30 -11 30 0 0 5 5 7 10 4 6 -4 24 8 39 26 21 24 30 46 34 86 7 64 -2 131 -14
111 -5 -7 -6 3 -2 25 5 33 3 37 -16 37 -11 0 -21 -4 -21 -9z"/>
<path d="M7785 9930 c-3 -5 -14 -10 -24 -10 -9 0 -27 -11 -39 -25 -21 -24 -21
-25 -2 -25 11 0 20 -6 21 -12 0 -7 5 -3 11 10 6 12 17 22 25 22 18 0 63 30 63
41 0 12 -47 11 -55 -1z"/>
<path d="M8589 9813 c-9 -23 -18 -31 -30 -28 -10 3 -19 -1 -23 -10 -3 -9 -10
-14 -15 -11 -5 3 -12 -2 -15 -11 -5 -12 -10 -13 -18 -5 -8 8 -19 7 -40 -6 -15
-9 -28 -19 -28 -23 0 -14 -51 -60 -60 -54 -15 9 -67 -44 -74 -76 -3 -17 -10
-28 -16 -24 -5 3 -12 -5 -16 -19 -7 -29 -34 -57 -34 -35 0 8 -6 5 -15 -7 -8
-10 -15 -31 -15 -46 0 -17 -6 -28 -13 -28 -14 0 -37 -41 -37 -63 1 -30 63 -77
75 -57 4 6 16 10 29 10 12 0 32 9 43 19 20 19 35 25 61 22 7 -1 12 -17 12 -45
0 -27 6 -48 16 -57 10 -8 13 -21 9 -36 -3 -13 -1 -23 4 -23 5 0 14 -13 21 -29
15 -38 63 -57 85 -35 10 10 15 11 15 3 0 -9 4 -8 15 1 8 7 13 15 11 19 -3 4
11 5 31 3 l36 -5 -8 39 c-9 49 -7 163 5 296 20 208 21 234 12 293 l-9 60 -14
-32z"/>
<path d="M9637 8781 c-3 -13 -1 -18 9 -14 7 2 10 11 7 19 -7 19 -10 18 -16 -5z"/>
<path d="M9900 8676 c0 -2 7 -17 15 -32 16 -30 19 -25 9 14 -5 18 -24 33 -24
18z"/>
<path d="M2006 8571 c4 -25 8 -48 10 -50 2 -2 19 12 37 31 l33 35 -44 15 -43
16 7 -47z"/>
<path d="M5697 8553 c-10 -9 -9 -23 2 -23 5 0 11 7 15 15 5 15 -5 20 -17 8z"/>
<path d="M1715 8530 c-3 -5 -15 -10 -26 -10 -10 0 -19 -4 -19 -9 0 -5 -8 -12
-18 -15 -10 -3 -26 -21 -37 -38 -10 -18 -26 -40 -35 -48 -10 -8 -29 -33 -44
-54 -14 -21 -26 -36 -26 -32 0 4 -15 -10 -32 -31 -18 -21 -36 -40 -39 -43 -20
-16 -180 -287 -206 -350 -78 -185 -81 -231 -9 -165 45 41 61 43 88 13 34 -39
19 -105 -49 -212 -75 -119 -125 -185 -141 -185 -7 -1 -24 -12 -38 -26 -14 -14
-35 -25 -48 -25 -15 0 -26 -7 -29 -20 -8 -30 -27 -24 -27 8 0 16 -6 36 -13 46
-11 15 -17 8 -52 -60 -22 -43 -41 -81 -43 -85 -2 -4 3 -13 10 -21 7 -8 18 -23
24 -33 7 -11 21 -20 33 -19 12 0 23 -7 27 -18 3 -10 9 -18 13 -18 5 0 11 -14
15 -32 8 -40 -15 -78 -48 -78 -28 0 -42 -15 -51 -53 -4 -15 -11 -27 -15 -27
-4 0 -15 -33 -23 -72 -20 -94 -31 -238 -19 -238 5 0 12 -14 16 -31 5 -24 10
-29 24 -24 33 10 45 -18 28 -59 -8 -20 -21 -38 -28 -40 -7 -2 -29 -8 -49 -15
-48 -15 -67 -6 -75 35 -7 39 -11 41 -30 17 -26 -34 -11 -131 29 -187 12 -17
16 -31 10 -35 -17 -10 -24 -76 -12 -110 10 -27 15 -32 35 -27 14 4 24 2 24 -4
0 -5 3 -9 8 -8 11 3 82 -35 82 -44 0 -4 8 -8 19 -8 32 0 43 -24 38 -89 -2 -34
-7 -64 -10 -68 -4 -3 -7 -1 -7 6 0 28 -25 -16 -27 -48 -1 -18 -8 -40 -15 -48
-9 -11 -9 -16 2 -23 11 -7 12 -15 4 -37 -8 -23 -15 -27 -36 -25 -33 4 -52 -26
-45 -72 2 -17 1 -40 -3 -52 -10 -25 25 -63 42 -46 7 7 18 7 34 0 13 -6 27 -8
32 -4 12 12 7 115 -6 128 -23 23 -14 36 21 28 26 -6 39 -3 60 14 l27 22 -11
84 c-5 46 -12 87 -14 90 -2 4 0 23 6 43 7 25 14 34 24 30 8 -3 15 -14 15 -24
0 -10 4 -19 9 -19 5 0 11 -18 15 -41 6 -35 9 -39 21 -29 13 10 15 8 15 -11 0
-37 11 -69 22 -63 5 3 6 19 3 35 -9 38 1 52 26 38 26 -14 98 -14 111 -1 8 8 7
19 -1 39 -8 19 -9 38 -3 53 8 21 4 29 -20 52 -17 16 -33 28 -37 28 -4 0 -15
16 -24 35 -9 19 -21 35 -26 35 -12 0 -41 85 -41 120 0 26 17 80 60 190 12 30
26 70 32 89 5 19 16 44 23 55 7 12 25 64 40 116 15 52 33 106 40 120 33 59
136 346 186 515 16 55 47 156 68 225 21 69 51 172 66 230 15 58 31 113 36 123
6 10 21 64 34 120 13 56 31 129 39 162 8 33 18 78 21 99 5 27 9 35 15 26 10
-16 24 60 24 135 0 74 -19 115 -55 115 -15 0 -31 -4 -34 -10z m-165 -205 c0
-8 7 -15 15 -15 8 0 19 -9 25 -20 10 -19 9 -21 -6 -19 -4 0 -10 -4 -13 -9 -4
-7 -15 -4 -30 7 -19 14 -22 24 -17 45 7 28 26 36 26 11z m27 -121 c-3 -3 -12
-4 -19 -1 -8 3 -5 6 6 6 11 1 17 -2 13 -5z m-37 -66 c0 6 5 12 10 12 7 0 8
-18 4 -50 -5 -34 -3 -50 5 -50 6 0 11 -7 11 -15 0 -8 -7 -15 -15 -15 -8 0 -15
-6 -16 -12 -1 -7 -5 -2 -9 12 -8 25 -8 24 -15 -9 -7 -27 -10 -30 -17 -16 -30
53 -25 135 8 135 8 0 14 6 14 13 0 8 4 7 10 -3 6 -10 10 -11 10 -2z m75 -108
c-4 -6 -11 -8 -16 -5 -5 4 -9 -2 -10 -12 0 -12 -2 -14 -6 -5 -3 8 1 25 8 38
11 21 14 22 21 9 5 -8 6 -20 3 -25z m-645 -750 c0 -5 -4 -10 -10 -10 -5 0 -10
5 -10 10 0 6 5 10 10 10 6 0 10 -4 10 -10z m220 -429 c0 -25 -7 -55 -15 -65
-14 -18 -15 -13 -15 52 0 59 3 70 15 66 10 -4 15 -20 15 -53z m-371 -593 c0
-13 -3 -17 -6 -10 -2 6 -9 10 -14 6 -5 -3 -9 -1 -9 5 0 8 9 14 28 20 1 1 2 -9
1 -21z"/>
<path d="M9932 8420 c-17 -88 -45 -181 -92 -305 -4 -11 -22 -63 -40 -115 -18
-52 -50 -130 -71 -174 -22 -43 -46 -107 -54 -143 -8 -35 -23 -80 -34 -101 -19
-39 -95 -258 -131 -382 -12 -41 -29 -93 -37 -115 -38 -103 -79 -410 -67 -502
10 -73 14 -83 33 -83 21 0 79 58 146 144 11 14 28 36 38 47 9 12 17 25 17 29
0 4 19 28 43 54 35 37 43 52 39 75 -6 44 40 111 77 111 23 0 61 -33 61 -53 0
-7 -13 -28 -29 -47 -27 -33 -29 -43 -33 -140 l-4 -105 -76 -145 c-42 -80 -87
-164 -100 -188 -28 -49 -27 -87 4 -96 19 -5 21 -10 15 -74 -5 -52 -3 -77 8
-100 10 -18 13 -41 9 -56 l-6 -26 -26 20 c-20 16 -27 18 -34 8 -8 -10 -11 -10
-15 0 -7 19 -30 14 -36 -8 -4 -17 -14 -20 -64 -20 -32 0 -64 -5 -71 -12 -6 -6
-31 -12 -54 -13 -90 -3 -90 -3 -78 -25 13 -24 -6 -100 -27 -113 -7 -4 -13 -20
-13 -35 0 -25 -19 -69 -20 -47 -1 23 -30 -31 -30 -57 0 -17 -5 -27 -12 -26 -7
2 -14 -7 -16 -20 -2 -13 -8 -20 -14 -16 -8 5 -9 1 -5 -10 4 -9 3 -15 -3 -11
-13 8 -41 -57 -43 -103 0 -22 -5 -38 -9 -36 -7 5 -12 -10 -9 -29 3 -17 -21
-47 -31 -41 -7 5 -8 2 -4 -5 5 -7 3 -25 -4 -41 -9 -22 -9 -33 1 -52 7 -12 11
-42 10 -66 -2 -32 2 -47 15 -56 9 -7 22 -28 28 -47 14 -45 47 -47 84 -7 15 16
39 42 54 56 15 15 34 45 43 67 9 22 25 49 34 60 39 44 49 94 45 225 -6 210 -4
229 17 266 36 65 66 87 117 86 49 -1 102 14 102 29 0 5 10 9 23 9 13 0 28 5
34 11 8 8 15 6 25 -10 7 -11 20 -21 29 -21 8 0 19 -3 22 -7 4 -3 19 -8 33 -9
21 -2 28 4 42 34 9 22 15 57 13 84 -2 38 1 49 18 59 16 11 19 21 15 54 -3 22
-12 57 -21 77 -17 40 -12 98 10 120 7 7 33 38 58 68 24 30 85 96 134 146 50
50 113 116 142 147 29 31 56 57 61 57 5 0 17 10 25 23 9 12 37 44 62 72 46 49
98 143 110 200 4 17 13 47 21 67 29 79 46 471 20 481 -8 3 -11 -8 -10 -32 1
-36 -12 -65 -26 -56 -4 3 -13 -2 -20 -10 -7 -8 -20 -15 -29 -15 -9 0 -33 -12
-54 -26 -21 -14 -43 -24 -50 -21 -7 2 -17 -3 -24 -12 -11 -14 -12 -14 -13 2 0
18 -20 25 -20 7 0 -5 -6 -10 -14 -10 -21 0 -40 67 -57 200 -13 105 -13 112 -6
140 5 17 1 32 -11 48 -16 21 -21 22 -45 11 -15 -7 -27 -18 -27 -26 0 -7 -5
-13 -10 -13 -6 0 -22 -11 -36 -25 l-25 -25 -9 26 c-11 28 -2 131 11 140 5 3 9
13 9 22 0 17 39 59 41 44 0 -4 4 1 8 12 7 17 8 17 23 2 9 -8 19 -21 21 -28 7
-17 27 9 27 35 0 14 -9 17 -44 17 -26 0 -51 -6 -60 -15 -8 -8 -21 -15 -30 -15
-8 0 -21 -7 -30 -15 -8 -8 -25 -19 -38 -25 -13 -5 -38 -22 -55 -36 l-33 -27 0
72 c0 72 9 97 51 146 23 26 65 131 77 192 5 26 6 102 3 168 l-6 120 -13 -65z
m-267 -1572 l-14 -33 -1 46 c0 51 10 70 22 40 4 -12 1 -34 -7 -53z"/>
<path d="M6577 8459 c-11 -6 -54 -13 -98 -16 -43 -3 -79 -9 -79 -13 0 -4 -20
-11 -45 -14 -25 -4 -45 -11 -45 -17 0 -5 -11 -9 -25 -9 -14 0 -25 -4 -25 -9 0
-5 -18 -12 -40 -16 -22 -4 -40 -11 -40 -16 0 -5 -7 -9 -15 -9 -8 0 -15 -4 -15
-9 0 -5 -13 -12 -30 -16 -16 -4 -30 -10 -30 -15 0 -4 -12 -11 -26 -14 -26 -7
-26 -7 -8 -25 11 -10 22 -17 25 -15 3 2 11 -8 18 -22 14 -31 -5 -81 -39 -104
-13 -8 -32 -24 -44 -36 -29 -28 -78 -51 -126 -59 -22 -4 -40 -11 -40 -15 0 -5
-14 -12 -32 -15 -46 -10 -56 -25 -73 -102 -30 -134 -51 -200 -68 -217 -10 -10
-17 -32 -17 -54 l1 -37 17 24 c36 50 74 81 97 81 13 0 27 5 30 10 3 6 24 10
46 10 21 0 39 4 39 9 0 5 35 12 77 16 42 4 81 12 87 19 6 6 25 40 43 76 71
149 246 400 278 400 4 0 23 17 43 38 40 40 91 72 116 72 9 0 16 5 16 10 0 6
15 10 33 10 46 0 67 -26 67 -81 0 -38 -11 -63 -76 -169 -42 -69 -81 -136 -88
-150 -6 -14 -24 -47 -40 -73 -16 -26 -26 -50 -24 -53 8 -7 68 8 68 17 0 5 13
9 30 9 16 0 42 5 57 11 15 7 44 18 63 26 19 8 43 18 52 23 10 6 24 10 32 10 8
0 16 3 18 8 2 4 21 16 43 27 22 11 45 24 52 30 7 5 19 16 27 23 8 6 17 12 20
12 3 0 30 26 60 57 60 62 68 84 70 182 1 56 -25 131 -46 131 -5 0 -20 11 -34
25 -19 19 -35 25 -69 25 -25 0 -45 5 -45 10 0 14 -220 12 -243 -1z"/>
<path d="M2903 8347 c-59 -11 -58 -7 -53 -119 2 -63 -22 -150 -79 -288 -135
-328 -166 -404 -182 -450 -11 -30 -24 -64 -29 -75 -16 -33 -79 -204 -106 -290
-15 -44 -36 -109 -49 -145 -134 -386 -147 -460 -81 -460 12 0 26 -3 30 -7 10
-10 79 -10 86 -1 3 4 21 8 40 9 19 2 40 6 45 9 6 4 25 10 43 13 18 4 40 13 47
21 8 8 19 16 24 18 12 4 19 23 8 23 -5 0 -26 34 -48 75 -37 70 -40 81 -42 160
-1 80 1 89 36 153 20 37 42 86 48 110 7 23 16 47 21 54 5 6 8 42 7 80 -1 37 1
100 5 138 7 64 14 93 36 150 16 42 51 182 57 230 3 28 16 82 29 122 13 39 24
79 24 87 0 19 49 96 61 96 23 0 31 -55 34 -255 6 -314 27 -657 49 -782 7 -40
8 -73 4 -73 -11 0 1 -141 12 -153 9 -10 128 79 192 144 26 26 62 78 81 116 18
37 52 98 75 134 23 36 42 69 42 72 0 3 13 34 28 69 83 183 95 246 89 455 -7
247 -34 324 -160 445 -50 50 -65 58 -108 64 -27 4 -49 10 -49 15 0 5 -25 9
-55 9 -42 0 -60 5 -75 20 -22 22 -53 24 -137 7z m185 -1119 c-14 -31 -53 -41
-45 -10 3 9 8 34 12 56 3 21 11 50 17 65 11 25 12 23 20 -28 6 -38 5 -62 -4
-83z"/>
<path d="M2731 8323 c-1 -7 -8 -13 -16 -13 -8 0 -15 -4 -15 -9 0 -5 -22 -11
-50 -15 -27 -4 -50 -11 -50 -16 0 -6 -7 -10 -15 -10 -8 0 -15 -4 -15 -10 0 -5
-16 -12 -35 -16 -19 -3 -35 -10 -35 -15 0 -4 -16 -11 -35 -15 -19 -3 -35 -10
-35 -15 0 -5 -7 -9 -15 -9 -8 0 -15 -4 -15 -10 0 -5 -11 -12 -25 -16 -14 -3
-25 -10 -25 -15 0 -5 -6 -9 -14 -9 -8 0 -16 -7 -19 -15 -5 -12 -1 -12 21 -4
63 25 71 22 70 -18 0 -33 -9 -47 -59 -98 -61 -62 -66 -75 -49 -120 6 -17 6
-49 -2 -98 -10 -64 -8 -86 11 -182 12 -60 24 -111 26 -113 10 -10 30 17 61 84
19 41 34 79 34 85 0 5 21 54 46 107 25 53 62 135 81 182 42 105 72 168 82 175
15 9 102 196 98 208 -4 9 -6 9 -6 0z"/>
<path d="M4907 8223 c-4 -3 -7 -27 -7 -53 0 -83 -69 -289 -112 -332 -10 -10
-18 -27 -18 -39 0 -11 -13 -48 -29 -82 -16 -34 -43 -92 -59 -128 -17 -36 -49
-85 -71 -108 -41 -42 -50 -61 -31 -61 6 0 10 4 10 9 0 4 16 11 35 14 19 3 44
14 55 25 12 11 37 22 56 25 19 3 47 14 62 25 15 10 44 22 65 25 21 3 51 17 68
31 17 14 41 26 53 26 26 0 76 21 76 33 0 4 12 7 26 7 14 0 40 7 57 16 18 9 40
21 50 26 62 31 132 71 144 84 8 8 18 14 22 14 5 0 37 27 72 60 35 33 68 60 74
60 22 0 32 46 29 134 -3 76 -6 91 -25 107 -12 10 -28 19 -36 19 -7 0 -13 5
-13 10 0 6 -7 10 -15 10 -8 0 -15 4 -15 9 0 4 -12 6 -26 3 -16 -3 -29 1 -35 9
-7 11 -50 14 -213 14 -113 1 -208 4 -212 8 -9 9 -29 9 -37 0z"/>
<path d="M4730 8190 c0 -5 -13 -10 -30 -10 -16 0 -30 -4 -30 -9 0 -5 -27 -12
-60 -16 -33 -4 -60 -11 -60 -15 0 -4 -22 -11 -50 -15 -27 -4 -50 -11 -50 -16
0 -5 -11 -9 -25 -9 -14 0 -25 -4 -25 -10 0 -5 -11 -10 -25 -10 l-25 0 21 -21
c11 -11 27 -18 34 -15 18 7 65 -38 65 -63 0 -16 -16 -63 -26 -80 -2 -1 -67 -5
-145 -7 -171 -5 -193 -14 -183 -72 3 -20 16 -71 29 -112 26 -85 49 -225 40
-240 -3 -5 1 -23 10 -40 9 -17 14 -36 13 -43 -3 -13 -2 -15 44 -28 54 -15 91
4 116 59 11 26 26 67 32 92 7 25 33 88 57 140 77 164 134 283 156 330 12 24
32 55 45 69 23 25 92 133 92 145 0 3 -4 6 -10 6 -5 0 -10 -4 -10 -10z"/>
<path d="M9001 8152 c-12 -13 -13 -26 -2 -85 13 -78 16 -86 32 -70 13 13 1 79
-18 98 -8 8 -10 15 -5 15 12 0 22 34 13 48 -4 6 -12 4 -20 -6z"/>
<path d="M2280 8100 c-8 -5 -12 -12 -9 -15 4 -3 12 1 19 10 14 17 11 19 -10 5z"/>
<path d="M10351 7698 c-1 -15 4 -30 9 -33 12 -7 12 12 0 40 -8 18 -9 17 -9 -7z"/>
<path d="M1976 7553 c-11 -11 -6 -23 9 -23 8 0 15 4 15 9 0 13 -16 22 -24 14z"/>
<path d="M9264 7257 c-12 -12 -31 -29 -44 -37 -12 -8 -28 -21 -34 -28 -6 -7
-17 -18 -24 -25 -7 -7 -24 -22 -37 -35 -14 -13 -25 -20 -25 -17 0 3 -23 -17
-50 -45 -28 -27 -55 -50 -60 -50 -5 0 -12 -9 -15 -21 -4 -11 -9 -18 -12 -15
-7 7 -53 -42 -84 -90 -31 -46 -57 -154 -66 -265 -6 -79 -6 -79 18 -79 27 0 44
16 86 82 15 24 32 48 38 53 6 6 21 26 32 45 12 20 32 47 43 60 11 13 31 40 43
59 12 19 29 43 38 52 9 9 27 35 39 58 13 22 27 41 32 41 16 0 118 239 118 277
0 9 -17 -1 -36 -20z"/>
<path d="M6098 7223 c-18 -20 -42 -66 -88 -168 -76 -167 -102 -263 -91 -335 8
-50 39 -110 57 -110 6 0 21 -9 34 -20 16 -14 37 -20 71 -20 29 0 49 -5 52 -12
3 -10 7 -10 19 0 20 16 105 42 141 42 15 0 27 4 27 10 0 5 16 12 35 16 19 3
35 10 35 14 0 4 12 12 28 18 15 5 41 22 57 36 17 15 42 33 56 41 34 18 109
170 109 221 0 45 -50 124 -78 124 -5 0 -21 14 -35 30 -17 19 -37 30 -53 30
-30 0 -127 31 -132 43 -2 4 -17 7 -33 7 -16 0 -29 4 -29 9 0 4 -19 11 -42 14
-24 3 -44 11 -46 16 -5 15 -32 14 -32 -1 0 -9 -3 -9 -12 0 -17 17 -32 15 -50
-5z"/>
<path d="M636 6955 c-3 -8 -1 -15 4 -15 6 0 10 7 10 15 0 8 -2 15 -4 15 -2 0
-6 -7 -10 -15z"/>
<path d="M1632 6920 c0 -14 2 -19 5 -12 2 6 2 18 0 25 -3 6 -5 1 -5 -13z"/>
<path d="M716 6201 c-4 -7 -5 -15 -2 -18 9 -9 19 4 14 18 -4 11 -6 11 -12 0z"/>
<path d="M751 6070 c-1 -8 -6 -36 -10 -62 -4 -26 -4 -45 1 -42 4 3 8 13 8 23
0 9 4 21 8 27 5 5 5 23 1 39 -3 17 -7 23 -8 15z"/>
<path d="M716 5824 c-9 -24 -7 -64 4 -64 5 0 17 14 26 31 13 26 14 33 2 40
-19 12 -25 11 -32 -7z"/>
<path d="M1090 5813 c0 -13 5 -23 10 -23 13 0 13 11 0 30 -8 12 -10 11 -10 -7z"/>
<path d="M1136 5762 c-3 -5 -3 -25 1 -43 l7 -34 7 29 c8 30 -3 67 -15 48z"/>
<path d="M1322 5425 c0 -16 2 -22 5 -12 2 9 2 23 0 30 -3 6 -5 -1 -5 -18z"/>
<path d="M9800 4115 c0 -8 2 -15 4 -15 2 0 6 7 10 15 3 8 1 15 -4 15 -6 0 -10
-7 -10 -15z"/>
<path d="M9990 4075 c0 -15 4 -24 10 -20 6 3 10 12 10 20 0 8 -4 17 -10 20 -6
4 -10 -5 -10 -20z"/>
<path d="M9810 4059 c0 -15 9 -37 20 -50 l19 -24 -8 32 c-5 17 -14 40 -20 50
-9 16 -10 15 -11 -8z"/>
<path d="M10055 3977 c-22 -24 -26 -38 -20 -57 8 -25 20 -25 46 1 17 17 23 18
37 8 9 -7 1 4 -17 24 -19 20 -35 37 -35 37 -1 -1 -6 -6 -11 -13z"/>
<path d="M9841 3848 c0 -13 4 -32 9 -43 7 -16 9 -13 9 17 1 20 -3 40 -9 43 -6
3 -10 -4 -9 -17z"/>
<path d="M9599 3699 c-36 -19 -36 -19 -28 -66 10 -52 4 -83 -16 -83 -16 0 -25
-22 -25 -59 0 -23 5 -27 31 -29 30 -2 68 27 69 54 0 7 7 25 15 40 8 16 15 37
15 47 0 10 4 26 9 35 10 18 -11 83 -26 81 -4 -1 -24 -10 -44 -20z"/>
<path d="M9960 3486 c0 -26 -23 -56 -43 -56 -19 0 -102 -80 -102 -99 -1 -46
-18 -142 -26 -147 -5 -3 -9 -14 -9 -24 0 -10 -8 -21 -17 -24 -26 -9 -53 -62
-53 -105 0 -90 -33 -185 -65 -189 -5 0 -12 -10 -15 -20 -7 -26 -42 -72 -51
-66 -4 2 -9 -16 -11 -41 -3 -42 -1 -45 22 -47 14 0 32 -2 40 -2 8 -1 22 2 31
8 20 12 35 -2 66 -63 16 -30 20 -48 14 -60 -15 -27 -5 -180 16 -256 16 -57 21
-66 27 -47 4 12 12 22 17 22 5 0 9 14 9 30 0 17 5 30 10 30 6 0 10 13 10 28 0
16 7 43 15 59 13 27 13 39 1 96 -7 37 -12 68 -9 70 2 3 -8 25 -22 50 -28 52
-33 79 -11 71 15 -6 32 5 64 39 61 64 87 85 93 75 4 -6 10 -2 14 11 4 13 9 20
13 17 3 -3 13 0 21 8 9 8 29 17 45 20 16 3 31 8 34 11 8 8 7 75 -2 105 -6 20
-6 22 4 10 10 -13 11 -12 6 3 -3 10 -6 27 -6 38 0 10 -7 19 -15 19 -8 0 -15 9
-15 20 0 11 -4 20 -10 20 -5 0 -10 7 -10 15 0 7 -7 18 -17 23 -14 9 -15 15 -3
56 9 34 10 53 2 73 -14 36 -18 95 -8 111 12 19 -15 112 -36 123 -15 8 -18 6
-18 -15z"/>
<path d="M1809 2902 c-16 -2 -32 -13 -39 -28 -8 -14 -20 -22 -27 -20 -7 3 -13
1 -13 -4 0 -5 -19 -28 -42 -52 l-42 -43 -103 -3 c-57 -3 -103 -8 -103 -13 0
-5 -13 -9 -30 -9 -16 0 -30 -3 -30 -8 0 -4 -10 -12 -22 -17 -12 -6 -40 -38
-62 -73 -31 -51 -41 -80 -51 -143 -9 -68 -9 -79 5 -85 35 -16 76 1 91 40 9 23
13 27 16 14 3 -10 9 -18 14 -18 5 0 9 -5 9 -12 0 -6 -3 -9 -6 -5 -4 3 -14 -9
-24 -28 -18 -36 -20 -99 -5 -182 7 -37 10 -41 41 -45 39 -5 58 13 68 63 7 40
52 95 73 91 21 -5 77 16 100 37 31 29 62 36 70 14 4 -10 16 -25 26 -33 17 -14
18 -20 7 -60 -17 -64 -32 -93 -41 -79 -4 8 -9 4 -14 -10 -3 -11 -12 -21 -20
-21 -16 0 -65 -56 -65 -75 0 -7 -8 -21 -17 -31 -10 -9 -23 -31 -29 -48 -7 -17
-17 -30 -24 -28 -10 2 -11 -8 -6 -40 20 -131 19 -145 -8 -228 -19 -56 -25 -91
-21 -112 4 -18 3 -33 -3 -37 -8 -5 -8 -20 -1 -51 18 -75 50 -145 59 -130 4 6
14 8 23 4 12 -4 20 2 27 21 9 23 15 27 39 23 24 -4 30 0 40 27 6 17 11 38 11
46 0 8 13 30 30 49 26 30 40 36 78 31 5 -1 17 -18 28 -38 10 -21 25 -45 32
-54 9 -12 10 -23 2 -43 -7 -21 -5 -34 11 -65 11 -21 23 -56 26 -77 3 -22 10
-45 16 -51 6 -9 6 -13 -2 -13 -6 0 -11 -9 -11 -21 0 -14 5 -19 15 -16 8 4 17
2 20 -4 4 -5 10 -7 14 -5 4 3 13 1 21 -5 12 -7 9 -9 -10 -10 -14 -1 -35 -1
-47 0 l-23 2 0 -405 0 -405 63 -3 c61 -3 61 -3 32 -17 -23 -10 -40 -11 -70 -3
-38 10 -43 9 -110 -37 -63 -42 -71 -51 -76 -87 -6 -46 -22 -78 -55 -111 -13
-13 -24 -28 -24 -34 0 -6 -4 -7 -10 -4 -6 4 -10 -8 -10 -29 l0 -36 518 2 517
3 3 23 c2 12 -1 22 -6 22 -5 0 -10 29 -10 65 0 36 4 65 9 65 5 0 9 11 9 23 0
13 9 34 20 47 25 29 25 50 0 57 -11 3 -20 9 -20 14 0 5 -22 9 -50 8 -27 -1
-50 -6 -50 -11 0 -4 -7 -8 -15 -8 -8 0 -17 -11 -21 -25 -5 -21 -12 -25 -46
-25 -50 0 -70 19 -62 59 4 17 10 31 14 31 5 0 14 17 21 38 6 20 20 48 31 61
43 55 51 121 53 406 1 249 0 273 -18 303 -16 27 -25 32 -58 32 -27 0 -39 4
-39 15 0 25 -23 65 -37 65 -7 0 -13 5 -13 10 0 6 -6 10 -14 10 -16 0 -26 21
-26 55 0 13 -4 26 -8 29 -5 3 -9 32 -10 66 -2 67 -37 147 -84 191 -10 9 -18
23 -18 31 0 8 -5 19 -11 25 -12 12 -41 87 -62 158 -7 22 -15 45 -18 50 -4 6
-16 39 -28 75 -21 65 -48 100 -76 100 -8 0 -29 12 -46 28 -17 15 -36 26 -42
24 -6 -2 -14 3 -18 10 -7 10 -11 10 -21 0 -16 -16 -28 -15 -28 4 0 8 -3 13 -7
11 -5 -3 -9 32 -11 77 -1 44 -6 92 -11 106 -29 84 -33 108 -22 128 6 11 11 40
11 64 1 24 6 63 11 88 12 53 19 224 10 254 -4 16 -13 20 -32 18z m181 -1133
c0 -6 9 -9 20 -6 12 3 21 -1 24 -12 26 -98 31 -111 48 -111 11 0 15 -5 12 -15
-4 -11 -2 -13 9 -10 17 7 47 -20 47 -42 0 -9 6 -13 14 -10 8 3 20 -1 27 -9 7
-8 18 -13 24 -10 16 6 53 -36 61 -69 7 -28 -21 -69 -39 -58 -6 4 -8 0 -4 -10
5 -15 1 -16 -25 -12 -17 3 -35 8 -39 11 -4 2 -13 -2 -21 -9 -11 -12 -13 -3
-10 54 4 66 3 69 -22 80 -14 7 -26 18 -26 25 0 7 -7 19 -15 28 -14 13 -19 12
-45 -14 -17 -16 -30 -36 -30 -45 0 -17 -16 -20 -25 -5 -4 6 -11 8 -16 5 -5 -4
-9 3 -9 15 0 12 -4 18 -10 15 -5 -3 -11 4 -12 17 -3 50 -6 74 -13 96 -5 14 -3
22 4 22 6 0 11 9 11 20 0 11 7 20 15 20 8 0 15 8 15 18 0 10 3 22 7 25 10 11
23 8 23 -4z m266 -718 c-2 -30 -9 -58 -15 -64 -6 -6 -40 -5 -96 3 -98 14 -107
10 -103 -44 4 -37 40 -49 118 -39 30 4 58 6 63 5 4 -1 7 7 7 18 0 13 6 20 14
18 8 -2 23 7 33 19 18 20 22 21 46 8 19 -10 27 -10 31 -2 2 7 5 1 6 -13 0 -14
7 -36 15 -50 8 -14 14 -35 15 -47 0 -12 6 -23 13 -26 9 -3 8 -9 -4 -23 -9 -10
-23 -36 -33 -57 -9 -20 -21 -35 -27 -32 -5 4 -9 1 -9 -5 0 -7 -7 -10 -15 -7
-8 4 -17 2 -19 -2 -3 -5 -16 -8 -28 -7 -13 1 -31 -7 -40 -18 -20 -21 -23 -36
-8 -36 6 0 10 -9 10 -20 0 -25 -39 -100 -52 -100 -5 0 -6 -5 -3 -11 9 -14 -27
-47 -62 -55 -15 -4 -39 -19 -52 -33 -14 -14 -27 -25 -30 -23 -3 2 -8 -5 -12
-15 -4 -10 -8 58 -8 150 l-1 169 105 -4 105 -3 0 88 0 87 -105 0 -105 0 0 65
0 65 115 0 115 0 1 73 c0 59 2 68 11 47 5 -14 7 -49 4 -79z"/>
<path d="M9277 2853 c-24 -13 -26 -17 -15 -31 28 -36 117 -116 104 -95 -4 7
-9 23 -11 34 -7 34 -37 109 -44 108 -3 -1 -19 -8 -34 -16z"/>
<path d="M10549 2723 c0 -10 -2 -31 -3 -46 -1 -16 2 -31 6 -33 15 -10 8 -82
-9 -99 -9 -10 -25 -33 -35 -52 -24 -44 -65 -86 -77 -78 -6 3 -13 -1 -18 -9 -4
-8 -15 -16 -23 -18 -14 -3 -40 -58 -40 -86 0 -7 -8 -25 -17 -39 -22 -34 -55
-137 -45 -141 10 -3 2 -82 -8 -82 -4 0 -11 -20 -14 -45 -5 -29 -17 -55 -37
-76 -28 -30 -30 -31 -48 -14 -18 16 -20 16 -29 -2 -5 -10 -7 -24 -5 -30 5 -14
63 -18 63 -4 0 4 19 11 42 14 24 3 44 11 46 16 2 6 9 11 16 11 21 0 82 63 122
125 21 34 46 91 56 130 9 39 26 97 38 130 11 33 23 78 27 100 8 49 47 131 80
166 30 32 45 135 22 149 -8 6 -16 4 -21 -3 -6 -9 -8 -9 -8 1 0 7 -4 10 -10 7
-5 -3 -23 1 -40 10 -28 14 -30 14 -31 -2z"/>
<path d="M9440 2627 c0 -6 5 -28 11 -47 10 -32 70 -243 80 -280 2 -8 6 -17 10
-20 3 -3 12 -23 20 -44 8 -22 20 -41 27 -44 16 -5 15 12 -2 51 -34 78 -38 95
-27 115 20 38 13 85 -18 121 -19 22 -31 50 -36 80 -10 72 -14 81 -41 81 -13 0
-24 -6 -24 -13z"/>
<path d="M9787 2185 c3 -22 11 -53 19 -70 16 -35 21 -95 10 -113 -9 -14 16
-42 38 -42 8 0 18 -4 21 -10 9 -15 45 -12 51 5 6 15 -34 95 -48 95 -11 0 -35
53 -48 108 -6 24 -17 42 -25 42 -7 0 -16 6 -19 13 -3 6 -3 -6 1 -28z"/>
<path d="M1169 2142 c-87 -90 -173 -348 -143 -426 3 -9 10 -13 15 -10 5 3 25
-4 43 -15 28 -18 35 -19 39 -7 6 14 23 16 42 4 13 -8 34 9 64 51 23 33 24 35
7 86 -9 28 -16 83 -16 122 0 41 -6 86 -15 107 -10 24 -13 50 -9 72 7 37 -2 42
-27 16z"/>
<path d="M9635 2110 c10 -11 20 -20 22 -20 1 0 3 9 3 20 0 14 -7 20 -22 20
-20 0 -21 -1 -3 -20z"/>
<path d="M10120 1870 c0 -5 5 -10 10 -10 6 0 10 5 10 10 0 6 -4 10 -10 10 -5
0 -10 -4 -10 -10z"/>
<path d="M1281 1303 c-13 -14 -7 -68 11 -90 14 -18 49 -7 82 26 l29 30 -29 13
c-16 7 -31 15 -34 19 -11 14 -46 15 -59 2z"/>
<path d="M8780 1100 c0 -71 -3 -130 -7 -130 -5 1 -19 7 -33 15 -69 40 -160 -3
-199 -94 -32 -76 -44 -155 -38 -256 7 -115 35 -194 85 -235 54 -45 103 -40
165 18 l27 26 0 -27 c0 -26 2 -27 60 -27 l60 0 0 420 0 420 -60 0 -60 0 0
-130z m-7 -257 c4 -2 7 -69 7 -148 0 -142 0 -145 -24 -160 -35 -23 -85 -16
-109 16 -25 34 -34 139 -18 207 12 48 39 83 71 95 14 5 56 -1 73 -10z"/>
<path d="M9010 1155 l0 -75 60 0 60 0 0 75 0 75 -60 0 -60 0 0 -75z"/>
<path d="M1840 1189 c0 -11 -4 -17 -10 -14 -11 7 -13 -27 -4 -73 4 -21 11 -29
20 -25 15 6 20 63 5 63 -6 0 -6 12 0 32 11 40 11 38 -1 38 -5 0 -10 -9 -10
-21z"/>
<path d="M240 785 l0 -395 60 0 60 0 1 258 1 257 33 -120 c19 -66 39 -139 45
-162 11 -42 11 -43 55 -43 41 0 45 2 53 33 5 17 24 91 43 162 l34 130 3 -257
2 -258 65 0 65 0 0 395 0 395 -75 0 -74 0 -20 -67 c-11 -38 -34 -120 -52 -183
-18 -63 -35 -118 -38 -122 -4 -4 -31 78 -60 182 l-53 190 -74 0 -74 0 0 -395z"/>
<path d="M1350 785 l0 -395 49 0 c27 0 56 -3 65 -6 14 -5 16 11 16 145 0 145
1 151 20 151 21 0 23 -5 123 -222 l36 -78 85 0 c48 0 86 4 86 10 0 5 -34 78
-75 161 -41 84 -75 159 -75 166 0 8 12 30 26 48 76 100 72 299 -7 372 -40 36
-74 43 -215 43 l-134 0 0 -395z m250 227 c15 -12 23 -32 26 -62 8 -75 -22
-109 -108 -124 l-38 -7 0 106 0 105 49 0 c32 0 56 -6 71 -18z"/>
<path d="M9640 1070 c0 -89 0 -90 -25 -90 -24 0 -25 -3 -25 -60 0 -57 1 -60
24 -60 l24 0 4 -192 c3 -215 10 -241 71 -278 35 -22 100 -26 141 -10 24 9 26
14 26 75 0 64 -6 75 -27 54 -6 -6 -23 -9 -39 -7 -46 5 -54 34 -54 206 l0 152
60 0 60 0 0 60 0 60 -60 0 -60 0 0 90 0 90 -60 0 -60 0 0 -90z"/>
<path d="M985 988 c-96 -53 -143 -174 -132 -341 11 -172 88 -277 202 -277 114
0 191 105 202 277 11 163 -36 291 -125 337 -35 18 -117 21 -147 4z m128 -156
c24 -42 35 -187 18 -249 -25 -92 -100 -111 -140 -35 -31 58 -25 233 10 291 17
28 24 32 56 29 30 -2 41 -10 56 -36z"/>
<path d="M8185 985 c-43 -22 -91 -80 -110 -133 -42 -118 -26 -312 33 -396 56
-81 168 -107 266 -63 l56 26 0 80 c0 45 -3 81 -7 81 -4 0 -17 -11 -28 -24 -68
-79 -175 -70 -210 16 -31 79 -32 78 120 78 l135 0 0 68 c0 129 -43 232 -110
267 -37 19 -107 19 -145 0z m109 -134 c9 -10 20 -35 23 -55 l6 -36 -77 0 c-81
0 -86 3 -67 53 22 56 81 76 115 38z"/>
<path d="M9344 981 c-45 -20 -73 -54 -106 -128 -30 -66 -32 -251 -4 -331 44
-127 177 -188 281 -129 l40 23 3 82 c2 45 0 82 -4 82 -3 0 -22 -14 -41 -30
-63 -56 -150 -32 -173 48 -20 75 -7 186 28 226 40 44 106 40 152 -9 13 -14 27
-25 32 -25 4 0 8 37 8 83 l0 83 -45 22 c-55 27 -116 28 -171 3z"/>
<path d="M10055 988 c-96 -53 -143 -174 -132 -341 11 -172 88 -277 202 -277
114 0 191 105 202 277 11 163 -36 291 -125 337 -35 18 -117 21 -147 4z m128
-156 c24 -42 35 -187 18 -249 -25 -92 -100 -111 -140 -35 -31 58 -25 233 10
291 17 28 24 32 56 29 30 -2 41 -10 56 -36z"/>
<path d="M9010 685 l0 -295 60 0 60 0 0 295 0 295 -60 0 -60 0 0 -295z"/>
<path d="M10420 685 l0 -295 60 0 60 0 0 205 c0 236 -2 231 96 223 l54 -5 0
84 0 83 -36 0 c-29 0 -44 -8 -75 -39 l-39 -39 0 39 0 39 -60 0 -60 0 0 -295z"/>
<path d="M7675 767 c-8 -93 -2 -114 21 -83 18 26 18 126 0 151 -12 17 -15 10
-21 -68z"/>
<path d="M7928 760 c-16 -17 -28 -34 -28 -39 0 -5 -3 -18 -7 -28 -8 -23 36 26
60 67 23 38 10 38 -25 0z"/>
<path d="M1820 753 c-9 -13 -20 -18 -36 -15 -19 3 -24 -1 -30 -23 -9 -35 17
-85 55 -108 l28 -17 7 38 c8 53 7 115 -3 131 -7 11 -11 10 -21 -6z"/>
<path d="M4627 743 c-7 -12 -25 -114 -26 -151 -2 -42 17 -81 30 -61 7 12 9 11
9 -1 1 -8 7 3 15 25 8 22 15 75 15 118 0 70 -2 77 -19 77 -11 0 -22 -3 -24 -7z"/>
<path d="M1510 453 c-12 -38 -29 -77 -36 -88 -8 -11 -14 -45 -14 -78 0 -50 4
-61 27 -83 14 -13 38 -27 52 -31 14 -3 29 -11 33 -16 8 -13 42 19 34 31 -5 9
9 61 25 94 5 10 9 30 9 46 0 42 -77 192 -99 192 -5 0 -19 -30 -31 -67z"/>
<path d="M4864 413 c-9 -21 -21 -67 -25 -103 -4 -36 -11 -78 -15 -94 -4 -15
-3 -31 2 -35 5 -3 19 -20 30 -37 18 -24 21 -40 17 -77 -6 -47 -5 -47 24 -47
26 0 31 4 36 33 2 17 1 55 -4 82 -11 72 -11 146 2 202 10 41 9 54 -5 81 -22
42 -40 40 -62 -5z"/>
<path d="M5043 52 c-12 -2 -27 -10 -33 -18 -11 -12 -6 -14 29 -14 22 0 41 3
41 8 -1 16 -16 27 -37 24z"/>
</g>
</svg>
